<svg xmlns="http://www.w3.org/2000/svg" xmlns:xlink="http://www.w3.org/1999/xlink" xmlns:lucid="lucid" width="7780.5" height="4220"><g transform="translate(5380.5 2520)" lucid:page-tab-id="0_0"><path d="M-5500-3000h8000v5000h-8000z" fill="#fff"/><path d="M-3060-2518a2 2 0 0 1 2-2h5456a2 2 0 0 1 2 2v4216a2 2 0 0 1-2 2h-5456a2 2 0 0 1-2-2z" fill="#fce4ec"/><use xlink:href="#a" transform="matrix(1,0,0,1,-3044,-2504) translate(0 110.93750000000001)"/><use xlink:href="#b" transform="matrix(1,0,0,1,-3044,-2504) translate(880.143229166667 110.93750000000001)"/><path d="M-2020 20H40v820h-2060V20z" fill="#876929"/><path d="M-2020 20H40v764h-2060z" fill="#d9a741"/><path d="M-1448.35 122.83h219.4v576.13h-219.4V122.83zM-1099.8 122.83h219.4v576.13h-219.4V122.83zM-751.45 122.83h219.4v576.13h-219.4V122.83zM-1765.8 285.93v249.93l188.08-124.97-188.08-124.97zM-402.7 285.93v249.93L-214.6 410.9-402.7 285.92z" fill="#fff"/><use xlink:href="#c" transform="matrix(1,0,0,1,-2020,840) translate(485.91145833333337 88.75)"/><path d="M-3040-1968a6 6 0 0 1 6-6h5388a6 6 0 0 1 6 6v842a6 6 0 0 1-6 6h-5388a6 6 0 0 1-6-6z" stroke="#3a414a" stroke-width="2" fill="#fff"/><path d="M-1925.64-1385.63v49.58h33.46v-49.58zM-2103.23-1331.23c-22.6-.27-22.6 30.02 0 29.76h136.03c22.6.26 22.6-30.03 0-29.76zm241.24 0c-11.08-.15 1.24 8.5 1.66 16.1 0 7.4-12.74 13.8-1.65 13.66h136.05c22.6.26 22.6-30.03 0-29.76z" stroke="#000" stroke-opacity="0" stroke-width="2.95" fill="#81ba33"/><path d="M-1967.33-1344.2v58.2h116.82v-58.2zm22.3 19.84h72.2v18.5h-72.2z" stroke="#000" stroke-opacity="0" stroke-width="1.97" fill="#81ba33"/><path d="M-2109.7-1498.16c-14.2 0-27.92 9.04-27.92 22.25v74.48c0 13.2 13.73 22.26 27.9 22.26h401.8c14.2 0 27.92-9.05 27.92-22.26v-74.5c0-13.2-13.73-22.24-27.9-22.24zm0 19.87h401.78c4.58 0 5.5 1.67 5.5 2.4v74.48c0 .72-.92 2.38-5.5 2.38h-401.78c-4.58 0-5.5-1.66-5.5-2.38v-74.5c0-.7.92-2.37 5.5-2.37z" stroke="#000" stroke-opacity="0" stroke-width="1.97" fill="#486385"/><path d="M-2072.57-1456.72c-11.44 0-21.27 8-21.27 18.07s9.83 18.06 21.27 18.06h5.58v-1.98c8.56-2.24 15.7-7.9 15.7-16.08 0-10.07-9.87-18.06-21.27-18.06zm0 9.94c5.32 0 10.13 4.22 10.13 8.13 0 3.9-4.8 8.12-10.13 8.12h-.04c-5.3-.03-10.1-4.22-10.1-8.13 0-3.9 4.8-8.12 10.13-8.12zM-1807.66-1425.58h66.97c4.43 0 6.68 2 6.68 5.95 0 3.96-2.25 5.95-6.67 5.95h-66.96c-4.42 0-6.67-2-6.67-5.95 0-3.96 2.25-5.95 6.67-5.95zM-1807.66-1445.78h66.97c4.43 0 6.68 2 6.68 5.95 0 3.96-2.25 5.95-6.67 5.95h-66.96c-4.42 0-6.67-2-6.67-5.95 0-3.96 2.25-5.95 6.67-5.95zM-1807.66-1465.6h66.97c4.43 0 6.68 1.97 6.68 5.94 0 3.96-2.25 5.95-6.67 5.95h-66.96c-4.42 0-6.67-2-6.67-5.96s2.25-5.95 6.67-5.95z" stroke="#000" stroke-opacity="0" stroke-width=".98" fill="#486385"/><path d="M-2109.7-1623.38c-14.2 0-27.92 9.04-27.92 22.25v74.5c0 13.2 13.73 22.25 27.9 22.25h401.8c14.2 0 27.92-9.05 27.92-22.26v-74.5c0-13.2-13.73-22.24-27.9-22.24zm0 19.87h401.78c4.58 0 5.5 1.65 5.5 2.37v74.5c0 .7-.92 2.37-5.5 2.37h-401.78c-4.58 0-5.5-1.66-5.5-2.38v-74.5c0-.7.92-2.37 5.5-2.37z" stroke="#000" stroke-opacity="0" stroke-width="1.97" fill="#486385"/><path d="M-2072.57-1550.78c-8.38 0-15.7-6.1-15.7-13.1s7.32-13.1 15.7-13.1c8.38 0 15.7 6.1 15.7 13.1s-7.32 13.1-15.7 13.1z" stroke="#486385" stroke-width=".98" fill-opacity="0"/><path d="M-1807.66-1550.8h66.97c4.43 0 6.68 2 6.68 5.95 0 3.96-2.25 5.95-6.67 5.95h-66.96c-4.42 0-6.67-1.98-6.67-5.95 0-3.96 2.25-5.95 6.67-5.95zM-1807.66-1571h66.97c4.43 0 6.68 2 6.68 5.95 0 3.96-2.25 5.95-6.67 5.95h-66.96c-4.42 0-6.67-2-6.67-5.95 0-3.96 2.25-5.95 6.67-5.95zM-1807.66-1590.83h66.97c4.43 0 6.68 1.98 6.68 5.95 0 3.96-2.25 5.95-6.67 5.95h-66.96c-4.42 0-6.67-2-6.67-5.95 0-3.96 2.25-5.95 6.67-5.95z" stroke="#000" stroke-opacity="0" stroke-width=".98" fill="#486385"/><path d="M-2109.7-1748.6c-14.2 0-27.92 9.04-27.92 22.25v74.5c0 13.2 13.73 22.25 27.9 22.25h401.8c14.2 0 27.92-9.05 27.92-22.26v-74.5c0-13.2-13.73-22.24-27.9-22.24h-11zm0 19.87h401.78c4.58 0 5.5 1.67 5.5 2.38v74.5c0 .7-.92 2.38-5.5 2.38h-401.78c-4.58 0-5.5-1.67-5.5-2.38v-74.5c0-.7.92-2.38 5.5-2.38z" stroke="#000" stroke-opacity="0" stroke-width="1.97" fill="#486385"/><path d="M-2072.57-1676c-8.38 0-15.7-6.1-15.7-13.1s7.32-13.1 15.7-13.1c8.38 0 15.7 6.1 15.7 13.1s-7.32 13.1-15.7 13.1z" stroke="#486385" stroke-width=".98" fill-opacity="0"/><path d="M-1807.66-1676.03h66.97c4.43 0 6.68 2 6.68 5.95 0 3.96-2.25 5.95-6.67 5.95h-66.96c-4.42 0-6.67-1.98-6.67-5.95 0-3.96 2.25-5.95 6.67-5.95zM-1807.66-1696.23h66.97c4.43 0 6.68 2 6.68 5.95 0 3.96-2.25 5.95-6.67 5.95h-66.96c-4.42 0-6.67-2-6.67-5.95 0-3.96 2.25-5.95 6.67-5.95zM-1807.66-1716.06h66.97c4.43 0 6.68 2 6.68 5.95s-2.25 5.94-6.67 5.94h-66.96c-4.42 0-6.67-2-6.67-5.95 0-3.97 2.25-5.96 6.67-5.96z" stroke="#000" stroke-opacity="0" stroke-width=".98" fill="#486385"/><path d="M-1692.04-1745.76H-2112.26c-14.27 0-25.87 13.66-25.87 28.8v311.93c0 15.14 11.6 28.43 25.87 28.43h9.82z" stroke="#000" stroke-opacity="0" stroke-width=".98" fill="#fff" fill-opacity=".2"/><path d="M-1943.74-1653.7c0 65.7-59.98 119.04-133.9 119.04-73.9 0-133.87-53.34-133.87-119.05 0-65.73 59.97-119.07 133.87-119.07s133.9 53.34 133.9 119.06z" stroke="#000" stroke-opacity="0" stroke-width="1.38" fill="#f7f7f7"/><path d="M-2072.64-1608.94c-4.76 2.98-9.3 5.04-14.83 6.65-10.2 3.22-19.26 4.48-30 4.36-8.85 0-17.37-1.14-25.34-3.55-8.1-2.4-14.5-5.72-20.93-10.76-6.53-5.16-10.85-10.66-14.28-17.77-3.55-7.1-5.32-15.36-5.32-24.76 0-9.16 1.66-17.3 5.1-24.52 3.42-7.1 8.07-13.18 13.94-18.1 6.3-5.16 12.6-8.6 20.7-11.24 8.63-2.75 16.37-4 25.56-3.9 4.87 0 9.3.23 13.28.8 3.88.58 7.42 1.27 10.4 2.07 4.76 1.27 8.75 2.88 12.95 5.28 2.78 1.72 4.66 3.67 5.88 5.62 1.22 1.95 1.77 4 1.77 6.08 0 2.06-.44 3.9-1.33 5.73-.88 1.84-2 3.44-3.2 4.82-1.22 1.38-2.33 2.52-3.77 3.67-1 .9-1.88 1.48-3.1 2.16-1.55-1.37-2.88-2.52-4.54-3.78-2.1-1.6-4.2-2.75-6.74-3.9-3-1.26-5.64-2.17-8.96-2.97-3.88-.9-7.3-1.26-11.3-1.26-5.3 0-10.06.8-14.27 2.3-4.43 1.6-7.86 3.66-11.18 6.64-3.43 3.2-5.64 6.42-7.3 10.55-1.88 4.7-2.77 9.06-2.66 13.98 0 5.3 1 9.98 2.87 14 1.88 4 4.54 7.33 7.86 10.08 3.65 2.87 7.3 4.82 11.84 6.08 4.65 1.37 9.63 2.06 14.94 2.06 6.65 0 12.4-.7 17.28-2.18 4.76-1.5 8.4-2.98 10.95-4.58l13.4 20.4z" stroke="#000" stroke-opacity="0" stroke-width=".98" fill="#81ba33"/><path d="M-2083.28-1631.86c.65.46 2.3 1.26 4.8 2.4 2.52 1.15 5.68 2.18 9.4 3.33 3.82 1.15 8.3 2.18 13.22 2.98 5.02.92 10.5 1.37 16.28 1.37 4.8 0 8.52-.23 11.47-.8 2.83-.7 5-1.37 6.54-2.3 1.42-.8 2.4-1.94 3.06-3.3.44-1.27.66-2.42.66-3.68.1-2.64-1.1-4.82-3.4-6.3-2.4-1.6-6.65-2.98-13-3.9l-18.23-2.87c-5.03-.8-9.3-1.7-14.2-3.2-4.8-1.38-8.75-3.1-12.8-5.73-4.03-2.53-6.87-5.5-9.17-9.3-2.4-3.88-3.6-8.58-3.6-14.2 0-4.8.98-9.4 3.06-13.64 1.96-4.35 5.13-8.02 9.28-11.23 4.16-3.2 9.4-5.73 15.74-7.56 6.44-1.82 13.87-2.74 22.4-2.74 6.22 0 11.68.34 16.27.92 4.27.45 7.88 1.03 12.03 2.06 3.28.9 6 1.72 8.08 2.52 2.1.92 3.62 1.6 4.6 2.06 1.97 1.15 3.93 2.52 5.8 4.47 1.85 1.83 2.83 4 2.72 6.52 0 1.84-.33 3.56-1.1 5.16-.65 1.72-1.4 2.98-2.5 4.47-1.1 1.5-2.2 2.64-3.4 3.67-.97.8-1.85 1.5-2.94 2.3-1.75-1.5-3.4-2.53-5.35-3.56-2.95-1.6-5.47-2.64-8.63-3.67-3.94-1.16-7.32-1.96-11.47-2.65-4.7-.8-8.85-1.14-13.66-1.14-4.7 0-8.4.35-11.14 1.04-2.74.7-4.7 1.6-6.12 2.52-1.3.92-2.18 2.06-2.6 3.44-.45 1.14-.67 2.3-.67 3.55 0 .92.1 1.83.44 2.64.32.8.98 1.7 2.07 2.5 1.2.8 2.84 1.5 4.92 2.2 2.08.67 4.8 1.36 8.4 1.93l18.9 3.33c6.35 1.14 11.6 2.4 17.6 4.35 5.13 1.85 9.4 3.9 12.78 6.55 3.5 2.52 6 5.5 7.76 9.16 1.75 3.57 2.62 7.92 2.62 12.85 0 11.12-4.7 19.82-13.98 26-9.4 6.32-22.62 9.4-39.55 9.4-7.55 0-14-.45-21.3-1.7-6.13-1.04-11.27-2.3-17.06-4.13-4.37-1.26-7.86-2.53-11.9-4.36-3.06-1.37-4.92-2.3-5.47-2.86z" stroke="#000" stroke-opacity="0" stroke-width=".98" fill="#486385"/><path d="M-2078.3-1780c-78.22 0-141.7 56.44-141.7 126 0 69.54 63.48 126 141.7 126 78.2 0 141.7-56.46 141.7-126-.02-69.56-63.5-126-141.7-126zm0 13.86c69.7 0 126.1 50.15 126.1 112.13s-56.4 112.13-126.1 112.13c-69.72 0-126.1-50.15-126.1-112.14 0-62 56.38-112.14 126.1-112.14z" stroke="#000" stroke-opacity="0" stroke-width="1.38" fill="#81ba33"/><use xlink:href="#d" transform="matrix(1,0,0,1,-2250,-1277) translate(203.984375 66.5625)"/><path d="M1500-425.25V185.4c0 63.1 170.24 114.6 380 114.6v-725.25h-380z" stroke="#000" stroke-opacity="0" stroke-width="3" fill="#0072c6"/><path d="M1874.8 299.98h5.38c209.56 0 379.82-51.5 379.82-114.58v-610.65h-385.2v725.23z" stroke="#000" stroke-opacity="0" stroke-width="3" fill="#0072c6"/><path d="M1874.8 299.98h5.38c209.56 0 379.82-51.5 379.82-114.58v-610.65h-385.2v725.23z" stroke="#000" stroke-opacity="0" stroke-width="3" fill="#fff" fill-opacity=".15"/><path d="M2260-425.25c0 63.35-170.24 114.76-380 114.76s-380-51.4-380-114.75C1500-488.6 1670.24-540 1880-540s380 51.4 380 114.75" stroke="#000" stroke-opacity="0" stroke-width="3" fill="#fff"/><path d="M2182.3-431.86c0 41.8-135.43 75.72-302.3 75.72-166.9 0-302.33-33.92-302.33-75.72s135.44-75.7 302.32-75.7c166.87 0 302.3 33.9 302.3 75.7" stroke="#000" stroke-opacity="0" stroke-width="3" fill="#7fba00"/><path d="M2118.84-385.58c39.9-12.8 63.5-28.8 63.5-46.23 0-41.85-135.45-75.76-302.33-75.76-166.87 0-302.3 33.9-302.3 75.75 0 17.43 23.57 33.4 63.48 46.22 55.02-17.94 141.48-29.4 238.83-29.4 97.36 0 183.82 11.47 238.84 29.4" stroke="#000" stroke-opacity="0" stroke-width="3" fill="#b8d432"/><path d="M1759.44-1.47c0 19-8.35 33.68-25.06 44.06-16.1 10.38-39.38 15.7-68.02 15.7-25.06 0-45.34-3.8-62.05-11.15V2.33c19.1 13.67 40 20.5 63.26 20.5 11.33 0 19.68-2 25.65-5.56 5.98-3.8 8.96-8.6 8.96-14.94 0-6.08-2.38-11.14-8.35-15.7-5.96-4.56-17.9-10.13-35.8-17.22-36.4-14.43-54.88-33.93-54.88-58.5 0-17.97 7.75-32.4 23.86-43.3 16.1-10.9 37-16.2 63.85-16.2 23.27 0 42.36 2.53 57.87 7.6v41.78c-16.1-9.37-34.6-13.93-54.9-13.93-10.73 0-18.5 1.77-25.05 5.57-5.97 3.3-8.95 8.6-8.95 14.7 0 6.32 2.38 11.4 7.76 15.44 4.77 4.05 14.32 9.1 29.83 14.94 22.07 8.86 38.18 17.98 47.72 27.1 9.55 9.1 14.32 20.26 14.32 33.93zm257.76-45.08c0 23.3-6.56 43.81-19.1 61.03-13.12 17.48-31.02 29.38-54.3 36.47l69.82 53.7h-70.4L1893.7 58.3c-21.5-.76-40.58-5.32-57.88-14.18-16.7-8.62-30.43-20.77-39.38-35.97-9.55-15.2-14.32-32.16-14.32-50.9 0-20.5 5.37-39 15.5-55.2 10.15-16.2 23.88-28.88 42.37-37.48 18.5-8.87 39.37-13.17 62.64-13.17 22.08 0 42.37 4.3 59.67 12.66 17.3 8.6 31.04 20.5 40.58 36.2 9.55 15.46 14.32 33.2 14.32 53.2zm-56.68 2.28c0-20.26-5.37-36.2-16.1-47.86-10.15-11.9-25.07-17.73-43.57-17.73s-33.4 5.83-44.75 17.73c-11.33 11.9-16.7 27.6-16.7 47.1s5.37 35.2 16.1 46.85c11.34 11.65 25.66 17.48 44.16 17.48 18.5 0 33.4-5.58 44.15-16.97 11.35-11.4 16.72-26.84 16.72-46.6zm239.27 99.02h-142.62V-145.3h53.7V18.27h88.9z" stroke="#000" stroke-opacity="0" stroke-width="3" fill="#fff"/><use xlink:href="#e" transform="matrix(1,0,0,1,1470,309) translate(249.97395833333331 88.75)"/><path d="M-2728.13-1780.3c-9.57 0-16.2-.55-18.45-.9h-1.4c-2.78-.36-4.87-2.5-5.04-5.16-1.22-12.46-1.4-22.95-.52-35.23v-4.62l.34-3.38 11.84 1.43-.35 3.02v4.1c-.53 9.96-.53 18.5 0 28.46 17.92 1.26 80.24 2.68 116.1-33.97 35.85-36.83 34.3-101.07 33.07-119.2-17.58-1.26-80.25-2.5-115.58 33.97-.88.9-1.75 1.96-2.62 2.85-.53.53-.87.9-1.22 1.42l-9.58-7.47c.53-.7 1.05-1.25 1.57-1.96l2.8-3.02c45.94-46.98 127.4-37.55 130.88-37.2 2.8.37 4.88 2.5 5.23 5.17.52 3.73 9.74 86.82-36.04 133.6-32.37 33.1-83.37 38.1-111.05 38.1z" stroke="#fff" stroke-opacity="0" fill="#d86613"/><path d="M-2745.98-1781.2h-2.08c-2.6-.36-4.68-2.48-5.03-5.32-1.37-15.04-1.37-27.8 0-43.02l11.98 1.24c-1.04 10.8-1.22 20-.87 30.8 28.62-21.4 51.5-41.42 76.47-67.27 26-26.55 46.3-50.8 67.96-81.26-22.7-.88-78.02.7-110.44 34.35-1.57 1.42-2.78 2.65-4 4.25l-9.53-7.6c1.56-1.96 2.95-3.38 4.68-5.15 45.77-46.9 127.26-37.35 130.72-37 2.26.18 3.82 1.42 4.86 3.37v-.02c.86 2.13.7 4.25-.52 6.02-23.57 34.53-46.1 61.8-75.24 91.53-27.74 28.5-53.4 50.63-85.64 74-1.04.7-2.08 1.07-3.3 1.07z" stroke="#fff" stroke-opacity="0" fill="#d86613"/><path d="M-2753.98-1797.43h11.9V-1680h-11.9v-117.43zM-2792.7-1824.98c-37.14 0-67.3-30.1-67.3-67.5 0-37.28 30.02-67.52 67.3-67.52 37.17 0 67.32 30.1 67.32 67.5 0 37.28-30.15 67.52-67.3 67.52zm0-123.27c-30.68.13-55.45 24.98-55.45 55.76.13 30.66 24.9 55.5 55.46 55.5 30.7 0 55.48-24.97 55.48-55.63-.14-30.64-24.9-55.5-55.47-55.62z" stroke="#fff" stroke-opacity="0" fill="#d86613"/><path d="M-2798.57-1928.33h11.9v79.43h-11.9v-79.43z" stroke="#fff" stroke-opacity="0" fill="#d86613"/><path d="M-2773.83-1903.64l-18.77-18.84-18.83 18.84-8.43-8.4 23-23.1c2.35-2.3 6.05-2.3 8.4 0l23 23.1z" stroke="#fff" stroke-opacity="0" fill="#d86613"/><path d="M-2747.97-1781.2c-2.8-.36-4.88-2.5-5.05-5.16l-.52-39.86.34-3.38 31.68-85.4c.53-.7 1.05-1.25 1.57-1.96l2.8-3.02c45.94-46.98 127.4-37.55 130.88-37.2 2.8.37 4.88 2.5 5.23 5.17.52 3.73 9.74 86.82-36.04 133.6-32.37 33.1-83.37 38.1-111.05 38.1z" stroke="#fff" stroke-opacity="0" stroke-width=".5" fill="#fff" fill-opacity="0"/><use xlink:href="#f" transform="matrix(1,0,0,1,-2890,-1671) translate(-70.0390625 66.5625)"/><path d="M-965.64-1399.63v49.58h33.46v-49.58zM-1143.23-1345.23c-22.6-.27-22.6 30.02 0 29.76h136.03c22.6.26 22.6-30.03 0-29.76zm241.24 0c-11.08-.15 1.25 8.5 1.66 16.1 0 7.4-12.74 13.8-1.65 13.66h136.05c22.6.26 22.6-30.03 0-29.76z" stroke="#000" stroke-opacity="0" stroke-width="2.95" fill="#81ba33"/><path d="M-1007.33-1358.2v58.2h116.82v-58.2zm22.3 19.84h72.2v18.5h-72.2z" stroke="#000" stroke-opacity="0" stroke-width="1.97" fill="#81ba33"/><path d="M-1149.7-1512.16c-14.2 0-27.92 9.04-27.92 22.25v74.48c0 13.2 13.73 22.26 27.9 22.26h401.8c14.2 0 27.92-9.05 27.92-22.26v-74.5c0-13.2-13.73-22.24-27.9-22.24zm0 19.87h401.8c4.56 0 5.48 1.67 5.48 2.4v74.48c0 .72-.92 2.38-5.5 2.38h-401.78c-4.58 0-5.5-1.66-5.5-2.38v-74.5c0-.7.92-2.37 5.5-2.37z" stroke="#000" stroke-opacity="0" stroke-width="1.97" fill="#486385"/><path d="M-1112.57-1470.72c-11.44 0-21.27 8-21.27 18.07s9.83 18.06 21.27 18.06h5.58v-1.98c8.56-2.24 15.7-7.9 15.7-16.08 0-10.07-9.87-18.06-21.27-18.06zm0 9.94c5.32 0 10.13 4.22 10.13 8.13 0 3.9-4.8 8.12-10.13 8.12h-.04c-5.3-.03-10.1-4.22-10.1-8.13 0-3.9 4.82-8.12 10.13-8.12zM-847.66-1439.58h66.97c4.43 0 6.68 2 6.68 5.95 0 3.96-2.25 5.95-6.67 5.95h-66.96c-4.42 0-6.67-2-6.67-5.95 0-3.96 2.25-5.95 6.67-5.95zM-847.66-1459.78h66.97c4.43 0 6.68 2 6.68 5.95 0 3.96-2.25 5.95-6.67 5.95h-66.96c-4.42 0-6.67-2-6.67-5.95 0-3.96 2.25-5.95 6.67-5.95zM-847.66-1479.6h66.97c4.43 0 6.68 1.97 6.68 5.94 0 3.96-2.25 5.95-6.67 5.95h-66.96c-4.42 0-6.67-2-6.67-5.96s2.25-5.95 6.67-5.95z" stroke="#000" stroke-opacity="0" stroke-width=".98" fill="#486385"/><path d="M-1149.7-1637.38c-14.2 0-27.92 9.04-27.92 22.25v74.5c0 13.2 13.73 22.25 27.9 22.25h401.8c14.2 0 27.92-9.05 27.92-22.26v-74.5c0-13.2-13.73-22.24-27.9-22.24zm0 19.87h401.8c4.56 0 5.48 1.65 5.48 2.37v74.5c0 .7-.92 2.37-5.5 2.37h-401.78c-4.58 0-5.5-1.66-5.5-2.38v-74.5c0-.7.92-2.37 5.5-2.37z" stroke="#000" stroke-opacity="0" stroke-width="1.97" fill="#486385"/><path d="M-1112.57-1564.78c-8.38 0-15.7-6.1-15.7-13.1s7.32-13.1 15.7-13.1c8.38 0 15.7 6.1 15.7 13.1s-7.32 13.1-15.7 13.1z" stroke="#486385" stroke-width=".98" fill-opacity="0"/><path d="M-847.66-1564.8h66.97c4.43 0 6.68 2 6.68 5.95 0 3.96-2.25 5.95-6.67 5.95h-66.96c-4.42 0-6.67-1.98-6.67-5.95 0-3.96 2.25-5.95 6.67-5.95zM-847.66-1585h66.97c4.43 0 6.68 2 6.68 5.95 0 3.96-2.25 5.95-6.67 5.95h-66.96c-4.42 0-6.67-2-6.67-5.95 0-3.96 2.25-5.95 6.67-5.95zM-847.66-1604.83h66.97c4.43 0 6.68 1.98 6.68 5.95 0 3.96-2.25 5.95-6.67 5.95h-66.96c-4.42 0-6.67-2-6.67-5.95 0-3.96 2.25-5.95 6.67-5.95z" stroke="#000" stroke-opacity="0" stroke-width=".98" fill="#486385"/><path d="M-1149.7-1762.6c-14.2 0-27.92 9.04-27.92 22.25v74.5c0 13.2 13.73 22.25 27.9 22.25h401.8c14.2 0 27.92-9.05 27.92-22.26v-74.5c0-13.2-13.73-22.24-27.9-22.24h-11zm0 19.87h401.8c4.56 0 5.48 1.67 5.48 2.38v74.5c0 .7-.92 2.38-5.5 2.38h-401.78c-4.58 0-5.5-1.67-5.5-2.38v-74.5c0-.7.92-2.38 5.5-2.38z" stroke="#000" stroke-opacity="0" stroke-width="1.97" fill="#486385"/><path d="M-1112.57-1690c-8.38 0-15.7-6.1-15.7-13.1s7.32-13.1 15.7-13.1c8.38 0 15.7 6.1 15.7 13.1s-7.32 13.1-15.7 13.1z" stroke="#486385" stroke-width=".98" fill-opacity="0"/><path d="M-847.66-1690.03h66.97c4.43 0 6.68 2 6.68 5.95 0 3.96-2.25 5.95-6.67 5.95h-66.96c-4.42 0-6.67-1.98-6.67-5.95 0-3.96 2.25-5.95 6.67-5.95zM-847.66-1710.23h66.97c4.43 0 6.68 2 6.68 5.95 0 3.96-2.25 5.95-6.67 5.95h-66.96c-4.42 0-6.67-2-6.67-5.95 0-3.96 2.25-5.95 6.67-5.95zM-847.66-1730.06h66.97c4.43 0 6.68 2 6.68 5.95s-2.25 5.94-6.67 5.94h-66.96c-4.42 0-6.67-2-6.67-5.95 0-3.97 2.25-5.96 6.67-5.96z" stroke="#000" stroke-opacity="0" stroke-width=".98" fill="#486385"/><path d="M-732.04-1759.76H-1152.26c-14.27 0-25.87 13.66-25.87 28.8v311.93c0 15.14 11.6 28.43 25.87 28.43h9.82z" stroke="#000" stroke-opacity="0" stroke-width=".98" fill="#fff" fill-opacity=".2"/><path d="M-983.74-1667.7c0 65.7-59.98 119.04-133.9 119.04-73.9 0-133.87-53.34-133.87-119.05 0-65.73 59.97-119.07 133.87-119.07s133.9 53.34 133.9 119.06z" stroke="#000" stroke-opacity="0" stroke-width="1.38" fill="#f7f7f7"/><path d="M-1112.64-1622.94c-4.76 2.98-9.3 5.04-14.83 6.65-10.2 3.22-19.26 4.48-30 4.36-8.85 0-17.37-1.14-25.34-3.55-8.1-2.4-14.5-5.72-20.93-10.76-6.53-5.16-10.85-10.66-14.28-17.77-3.55-7.1-5.32-15.36-5.32-24.76 0-9.16 1.66-17.3 5.1-24.52 3.42-7.1 8.07-13.18 13.94-18.1 6.3-5.16 12.6-8.6 20.7-11.24 8.63-2.75 16.37-4 25.56-3.9 4.87 0 9.3.23 13.28.8 3.88.58 7.42 1.27 10.4 2.07 4.76 1.27 8.75 2.88 12.95 5.28 2.78 1.72 4.66 3.67 5.88 5.62 1.22 1.95 1.77 4 1.77 6.08 0 2.06-.44 3.9-1.33 5.73-.88 1.84-2 3.44-3.2 4.82-1.23 1.38-2.33 2.52-3.77 3.67-1 .9-1.88 1.48-3.1 2.16-1.55-1.37-2.88-2.52-4.54-3.78-2.1-1.6-4.2-2.75-6.74-3.9-3-1.26-5.64-2.17-8.96-2.97-3.88-.9-7.3-1.26-11.3-1.26-5.3 0-10.06.8-14.27 2.3-4.43 1.6-7.86 3.66-11.18 6.64-3.43 3.2-5.64 6.42-7.3 10.55-1.88 4.7-2.77 9.06-2.66 13.98 0 5.3 1 9.98 2.87 14 1.88 4 4.54 7.33 7.86 10.08 3.65 2.87 7.3 4.82 11.84 6.08 4.65 1.37 9.63 2.06 14.94 2.06 6.65 0 12.4-.7 17.28-2.18 4.75-1.5 8.4-2.98 10.95-4.58l13.4 20.4z" stroke="#000" stroke-opacity="0" stroke-width=".98" fill="#81ba33"/><path d="M-1123.28-1645.86c.65.46 2.3 1.26 4.8 2.4 2.52 1.15 5.68 2.18 9.4 3.33 3.82 1.15 8.3 2.18 13.22 2.98 5.02.92 10.5 1.37 16.28 1.37 4.8 0 8.52-.23 11.47-.8 2.83-.7 5-1.37 6.54-2.3 1.42-.8 2.4-1.94 3.06-3.3.44-1.27.66-2.42.66-3.68.1-2.64-1.1-4.82-3.4-6.3-2.4-1.6-6.65-2.98-13-3.9l-18.23-2.87c-5.03-.8-9.3-1.7-14.2-3.2-4.8-1.38-8.75-3.1-12.8-5.73-4.03-2.53-6.87-5.5-9.17-9.3-2.4-3.88-3.6-8.58-3.6-14.2 0-4.8.98-9.4 3.06-13.64 1.96-4.35 5.13-8.02 9.28-11.23 4.16-3.2 9.4-5.73 15.74-7.56 6.44-1.82 13.87-2.74 22.4-2.74 6.22 0 11.68.34 16.27.92 4.27.45 7.88 1.03 12.03 2.06 3.28.9 6 1.72 8.08 2.52 2.1.92 3.62 1.6 4.6 2.06 1.97 1.15 3.93 2.52 5.8 4.47 1.85 1.83 2.83 4 2.72 6.52 0 1.84-.33 3.56-1.1 5.16-.65 1.72-1.4 2.98-2.5 4.47-1.1 1.5-2.2 2.64-3.4 3.67-.97.8-1.85 1.5-2.94 2.3-1.75-1.5-3.4-2.53-5.35-3.56-2.95-1.6-5.47-2.64-8.63-3.67-3.94-1.16-7.32-1.96-11.47-2.65-4.7-.8-8.85-1.14-13.66-1.14-4.7 0-8.4.35-11.14 1.04-2.74.7-4.7 1.6-6.12 2.52-1.3.92-2.18 2.06-2.6 3.44-.45 1.14-.67 2.3-.67 3.55 0 .92.1 1.83.44 2.64.33.8.98 1.7 2.07 2.5 1.2.8 2.84 1.5 4.92 2.2 2.08.67 4.8 1.36 8.4 1.93l18.9 3.33c6.35 1.14 11.6 2.4 17.6 4.35 5.13 1.85 9.4 3.9 12.78 6.55 3.5 2.52 6 5.5 7.76 9.16 1.75 3.57 2.62 7.92 2.62 12.85 0 11.12-4.7 19.82-13.98 26-9.4 6.32-22.62 9.4-39.55 9.4-7.55 0-14-.45-21.3-1.7-6.13-1.04-11.27-2.3-17.06-4.13-4.37-1.26-7.86-2.53-11.9-4.36-3.06-1.37-4.92-2.3-5.47-2.86z" stroke="#000" stroke-opacity="0" stroke-width=".98" fill="#486385"/><path d="M-1118.3-1794c-78.22 0-141.7 56.44-141.7 126 0 69.54 63.48 126 141.7 126 78.2 0 141.68-56.46 141.68-126 0-69.56-63.47-126-141.7-126zm0 13.86c69.7 0 126.1 50.15 126.1 112.13s-56.4 112.13-126.1 112.13c-69.72 0-126.1-50.15-126.1-112.14 0-62 56.38-112.14 126.1-112.14z" stroke="#000" stroke-opacity="0" stroke-width="1.38" fill="#81ba33"/><use xlink:href="#d" transform="matrix(1,0,0,1,-1290,-1291) translate(203.984375 66.5625)"/><path d="M-85.64-1405.63v49.58h33.46v-49.58zM-263.23-1351.23c-22.6-.27-22.6 30.02 0 29.76h136.03c22.6.26 22.6-30.03 0-29.76zm241.24 0c-11.08-.15 1.25 8.5 1.66 16.1 0 7.4-12.74 13.8-1.65 13.66h136.05c22.6.26 22.6-30.03 0-29.76z" stroke="#000" stroke-opacity="0" stroke-width="2.95" fill="#81ba33"/><path d="M-127.33-1364.2v58.2H-10.5v-58.2zm22.3 19.84h72.2v18.5h-72.2z" stroke="#000" stroke-opacity="0" stroke-width="1.97" fill="#81ba33"/><path d="M-269.7-1518.16c-14.2 0-27.92 9.04-27.92 22.25v74.48c0 13.2 13.73 22.26 27.92 22.26h401.78c14.2 0 27.92-9.05 27.92-22.26v-74.5c0-13.2-13.73-22.24-27.9-22.24zm0 19.87h401.78c4.58 0 5.5 1.67 5.5 2.4v74.48c0 .72-.92 2.38-5.5 2.38H-269.7c-4.58 0-5.5-1.66-5.5-2.38v-74.5c0-.7.92-2.37 5.5-2.37z" stroke="#000" stroke-opacity="0" stroke-width="1.97" fill="#486385"/><path d="M-232.57-1476.72c-11.44 0-21.27 8-21.27 18.07s9.83 18.06 21.27 18.06h5.57v-1.98c8.56-2.24 15.7-7.9 15.7-16.08 0-10.07-9.87-18.06-21.27-18.06zm0 9.94c5.32 0 10.13 4.22 10.13 8.13 0 3.9-4.8 8.12-10.13 8.12h-.04c-5.28-.03-10.1-4.22-10.1-8.13 0-3.9 4.8-8.12 10.13-8.12zM32.34-1445.58H99.3c4.43 0 6.68 2 6.68 5.95 0 3.96-2.25 5.95-6.67 5.95H32.35c-4.42 0-6.67-2-6.67-5.95 0-3.96 2.25-5.95 6.67-5.95zM32.34-1465.78H99.3c4.43 0 6.68 2 6.68 5.95 0 3.96-2.25 5.95-6.67 5.95H32.35c-4.42 0-6.67-2-6.67-5.95 0-3.96 2.25-5.95 6.67-5.95zM32.34-1485.6H99.3c4.43 0 6.68 1.97 6.68 5.94 0 3.96-2.25 5.95-6.67 5.95H32.35c-4.42 0-6.67-2-6.67-5.96s2.25-5.95 6.67-5.95z" stroke="#000" stroke-opacity="0" stroke-width=".98" fill="#486385"/><path d="M-269.7-1643.38c-14.2 0-27.92 9.04-27.92 22.25v74.5c0 13.2 13.73 22.25 27.92 22.25h401.78c14.2 0 27.92-9.05 27.92-22.26v-74.5c0-13.2-13.73-22.24-27.9-22.24zm0 19.87h401.78c4.58 0 5.5 1.65 5.5 2.37v74.5c0 .7-.92 2.37-5.5 2.37H-269.7c-4.58 0-5.5-1.66-5.5-2.38v-74.5c0-.7.92-2.37 5.5-2.37z" stroke="#000" stroke-opacity="0" stroke-width="1.97" fill="#486385"/><path d="M-232.57-1570.78c-8.38 0-15.7-6.1-15.7-13.1s7.32-13.1 15.7-13.1c8.38 0 15.7 6.1 15.7 13.1s-7.32 13.1-15.7 13.1z" stroke="#486385" stroke-width=".98" fill-opacity="0"/><path d="M32.34-1570.8H99.3c4.43 0 6.68 2 6.68 5.95 0 3.96-2.25 5.95-6.67 5.95H32.35c-4.42 0-6.67-1.98-6.67-5.95 0-3.96 2.25-5.95 6.67-5.95zM32.34-1591H99.3c4.43 0 6.68 2 6.68 5.95 0 3.96-2.25 5.95-6.67 5.95H32.35c-4.42 0-6.67-2-6.67-5.95 0-3.96 2.25-5.95 6.67-5.95zM32.34-1610.83H99.3c4.43 0 6.68 1.98 6.68 5.95 0 3.96-2.25 5.95-6.67 5.95H32.35c-4.42 0-6.67-2-6.67-5.95 0-3.96 2.25-5.95 6.67-5.95z" stroke="#000" stroke-opacity="0" stroke-width=".98" fill="#486385"/><path d="M-269.7-1768.6c-14.2 0-27.92 9.04-27.92 22.25v74.5c0 13.2 13.73 22.25 27.92 22.25h401.78c14.2 0 27.92-9.05 27.92-22.26v-74.5c0-13.2-13.73-22.24-27.9-22.24h-11zm0 19.87h401.78c4.58 0 5.5 1.67 5.5 2.38v74.5c0 .7-.92 2.38-5.5 2.38H-269.7c-4.58 0-5.5-1.67-5.5-2.38v-74.5c0-.7.92-2.38 5.5-2.38z" stroke="#000" stroke-opacity="0" stroke-width="1.97" fill="#486385"/><path d="M-232.57-1696c-8.38 0-15.7-6.1-15.7-13.1s7.32-13.1 15.7-13.1c8.38 0 15.7 6.1 15.7 13.1s-7.32 13.1-15.7 13.1z" stroke="#486385" stroke-width=".98" fill-opacity="0"/><path d="M32.34-1696.03H99.3c4.43 0 6.68 2 6.68 5.95 0 3.96-2.25 5.95-6.67 5.95H32.35c-4.42 0-6.67-1.98-6.67-5.95 0-3.96 2.25-5.95 6.67-5.95zM32.34-1716.23H99.3c4.43 0 6.68 2 6.68 5.95 0 3.96-2.25 5.95-6.67 5.95H32.35c-4.42 0-6.67-2-6.67-5.95 0-3.96 2.25-5.95 6.67-5.95zM32.34-1736.06H99.3c4.43 0 6.68 2 6.68 5.95s-2.25 5.94-6.67 5.94H32.35c-4.42 0-6.67-2-6.67-5.95 0-3.97 2.25-5.96 6.67-5.96z" stroke="#000" stroke-opacity="0" stroke-width=".98" fill="#486385"/><path d="M147.96-1765.76H-272.26c-14.27 0-25.87 13.66-25.87 28.8v311.93c0 15.14 11.6 28.43 25.87 28.43h9.82z" stroke="#000" stroke-opacity="0" stroke-width=".98" fill="#fff" fill-opacity=".2"/><path d="M-103.74-1673.7c0 65.7-59.98 119.04-133.9 119.04-73.9 0-133.87-53.34-133.87-119.05 0-65.73 59.97-119.07 133.87-119.07s133.9 53.34 133.9 119.06z" stroke="#000" stroke-opacity="0" stroke-width="1.38" fill="#f7f7f7"/><path d="M-232.64-1628.94c-4.76 2.98-9.3 5.04-14.83 6.65-10.2 3.22-19.26 4.48-30 4.36-8.85 0-17.37-1.14-25.34-3.55-8.1-2.4-14.5-5.72-20.93-10.76-6.53-5.16-10.85-10.66-14.28-17.77-3.55-7.1-5.32-15.36-5.32-24.76 0-9.16 1.66-17.3 5.1-24.52 3.42-7.1 8.07-13.18 13.94-18.1 6.3-5.16 12.6-8.6 20.7-11.24 8.63-2.75 16.37-4 25.56-3.9 4.87 0 9.3.23 13.28.8 3.88.58 7.42 1.27 10.4 2.07 4.76 1.27 8.75 2.88 12.95 5.28 2.78 1.72 4.66 3.67 5.88 5.62 1.22 1.95 1.77 4 1.77 6.08 0 2.06-.44 3.9-1.33 5.73-.88 1.84-2 3.44-3.2 4.82-1.22 1.38-2.33 2.52-3.77 3.67-1 .9-1.88 1.48-3.1 2.16-1.55-1.37-2.88-2.52-4.54-3.78-2.1-1.6-4.2-2.75-6.74-3.9-3-1.26-5.64-2.17-8.96-2.97-3.88-.9-7.3-1.26-11.3-1.26-5.3 0-10.06.8-14.27 2.3-4.43 1.6-7.86 3.66-11.18 6.64-3.43 3.2-5.64 6.42-7.3 10.55-1.88 4.7-2.77 9.06-2.66 13.98 0 5.3 1 9.98 2.87 14 1.88 4 4.54 7.33 7.86 10.08 3.65 2.87 7.3 4.82 11.84 6.08 4.65 1.37 9.63 2.06 14.94 2.06 6.65 0 12.4-.7 17.28-2.18 4.75-1.5 8.4-2.98 10.95-4.58l13.4 20.4z" stroke="#000" stroke-opacity="0" stroke-width=".98" fill="#81ba33"/><path d="M-243.28-1651.86c.65.46 2.3 1.26 4.8 2.4 2.52 1.15 5.7 2.18 9.4 3.33 3.82 1.15 8.3 2.18 13.22 2.98 5.02.92 10.5 1.37 16.28 1.37 4.8 0 8.52-.23 11.47-.8 2.83-.7 5-1.37 6.54-2.3 1.42-.8 2.4-1.94 3.06-3.3.44-1.27.66-2.42.66-3.68.1-2.64-1.1-4.82-3.4-6.3-2.4-1.6-6.65-2.98-13-3.9l-18.23-2.87c-5.03-.8-9.3-1.7-14.2-3.2-4.8-1.38-8.75-3.1-12.8-5.73-4.03-2.53-6.87-5.5-9.17-9.3-2.4-3.88-3.6-8.58-3.6-14.2 0-4.8.98-9.4 3.06-13.64 1.96-4.35 5.13-8.02 9.28-11.23 4.16-3.2 9.4-5.73 15.74-7.56 6.44-1.82 13.87-2.74 22.4-2.74 6.22 0 11.68.34 16.27.92 4.27.45 7.88 1.03 12.03 2.06 3.28.9 6 1.72 8.08 2.52 2.1.92 3.62 1.6 4.6 2.06 1.97 1.15 3.93 2.52 5.8 4.47 1.85 1.83 2.83 4 2.72 6.52 0 1.84-.33 3.56-1.1 5.16-.65 1.72-1.4 2.98-2.5 4.47-1.1 1.5-2.2 2.64-3.4 3.67-.97.8-1.85 1.5-2.94 2.3-1.75-1.5-3.4-2.53-5.35-3.56-2.95-1.6-5.47-2.64-8.63-3.67-3.94-1.16-7.32-1.96-11.48-2.65-4.7-.8-8.84-1.14-13.65-1.14-4.7 0-8.4.35-11.14 1.04-2.74.7-4.7 1.6-6.12 2.52-1.3.92-2.18 2.06-2.6 3.44-.45 1.14-.67 2.3-.67 3.55 0 .92.1 1.83.44 2.64.33.8.98 1.7 2.07 2.5 1.2.8 2.84 1.5 4.92 2.2 2.07.67 4.8 1.36 8.4 1.93l18.9 3.33c6.35 1.14 11.6 2.4 17.6 4.35 5.13 1.85 9.4 3.9 12.78 6.55 3.5 2.52 6 5.5 7.76 9.16 1.75 3.57 2.62 7.92 2.62 12.85 0 11.12-4.7 19.82-13.98 26-9.4 6.32-22.62 9.4-39.55 9.4-7.55 0-14-.45-21.3-1.7-6.13-1.04-11.27-2.3-17.06-4.13-4.37-1.26-7.86-2.53-11.9-4.36-3.06-1.37-4.92-2.3-5.47-2.86z" stroke="#000" stroke-opacity="0" stroke-width=".98" fill="#486385"/><path d="M-238.3-1800c-78.22 0-141.7 56.44-141.7 126 0 69.54 63.48 126 141.7 126 78.2 0 141.7-56.46 141.7-126-.02-69.56-63.5-126-141.7-126zm0 13.86c69.7 0 126.1 50.15 126.1 112.13s-56.4 112.13-126.1 112.13c-69.72 0-126.1-50.15-126.1-112.14 0-62 56.38-112.14 126.1-112.14z" stroke="#000" stroke-opacity="0" stroke-width="1.38" fill="#81ba33"/><use xlink:href="#d" transform="matrix(1,0,0,1,-410,-1297) translate(203.984375 66.5625)"/><path d="M854.36-1399.63v49.58h33.46v-49.58zM676.77-1345.23c-22.6-.27-22.6 30.02 0 29.76H812.8c22.6.26 22.6-30.03 0-29.76zm241.24 0c-11.08-.15 1.25 8.5 1.66 16.1 0 7.4-12.74 13.8-1.65 13.66h136.05c22.6.26 22.6-30.03 0-29.76z" stroke="#000" stroke-opacity="0" stroke-width="2.95" fill="#81ba33"/><path d="M812.67-1358.2v58.2H929.5v-58.2zm22.3 19.84h72.2v18.5h-72.2z" stroke="#000" stroke-opacity="0" stroke-width="1.97" fill="#81ba33"/><path d="M670.3-1512.16c-14.2 0-27.92 9.04-27.92 22.25v74.48c0 13.2 13.73 22.26 27.9 22.26h401.8c14.2 0 27.92-9.05 27.92-22.26v-74.5c0-13.2-13.73-22.24-27.9-22.24zm0 19.87h401.8c4.56 0 5.48 1.67 5.48 2.4v74.48c0 .72-.92 2.38-5.5 2.38H670.3c-4.58 0-5.5-1.66-5.5-2.38v-74.5c0-.7.92-2.37 5.5-2.37z" stroke="#000" stroke-opacity="0" stroke-width="1.97" fill="#486385"/><path d="M707.43-1470.72c-11.44 0-21.27 8-21.27 18.07s9.83 18.06 21.27 18.06H713v-1.98c8.56-2.24 15.7-7.9 15.7-16.08 0-10.07-9.87-18.06-21.27-18.06zm0 9.94c5.32 0 10.13 4.22 10.13 8.13 0 3.9-4.8 8.12-10.13 8.12h-.04c-5.28-.03-10.1-4.22-10.1-8.13 0-3.9 4.82-8.12 10.13-8.12zM972.34-1439.58h66.97c4.43 0 6.68 2 6.68 5.95 0 3.96-2.25 5.95-6.67 5.95h-66.96c-4.42 0-6.67-2-6.67-5.95 0-3.96 2.25-5.95 6.67-5.95zM972.34-1459.78h66.97c4.43 0 6.68 2 6.68 5.95 0 3.96-2.25 5.95-6.67 5.95h-66.96c-4.42 0-6.67-2-6.67-5.95 0-3.96 2.25-5.95 6.67-5.95zM972.34-1479.6h66.97c4.43 0 6.68 1.97 6.68 5.94 0 3.96-2.25 5.95-6.67 5.95h-66.96c-4.42 0-6.67-2-6.67-5.96s2.25-5.95 6.67-5.95z" stroke="#000" stroke-opacity="0" stroke-width=".98" fill="#486385"/><path d="M670.3-1637.38c-14.2 0-27.92 9.04-27.92 22.25v74.5c0 13.2 13.73 22.25 27.9 22.25h401.8c14.2 0 27.92-9.05 27.92-22.26v-74.5c0-13.2-13.73-22.24-27.9-22.24zm0 19.87h401.8c4.56 0 5.48 1.65 5.48 2.37v74.5c0 .7-.92 2.37-5.5 2.37H670.3c-4.58 0-5.5-1.66-5.5-2.38v-74.5c0-.7.92-2.37 5.5-2.37z" stroke="#000" stroke-opacity="0" stroke-width="1.97" fill="#486385"/><path d="M707.43-1564.78c-8.38 0-15.7-6.1-15.7-13.1s7.32-13.1 15.7-13.1c8.38 0 15.7 6.1 15.7 13.1s-7.32 13.1-15.7 13.1z" stroke="#486385" stroke-width=".98" fill-opacity="0"/><path d="M972.34-1564.8h66.97c4.43 0 6.68 2 6.68 5.95 0 3.96-2.25 5.95-6.67 5.95h-66.96c-4.42 0-6.67-1.98-6.67-5.95 0-3.96 2.25-5.95 6.67-5.95zM972.34-1585h66.97c4.43 0 6.68 2 6.68 5.95 0 3.96-2.25 5.95-6.67 5.95h-66.96c-4.42 0-6.67-2-6.67-5.95 0-3.96 2.25-5.95 6.67-5.95zM972.34-1604.83h66.97c4.43 0 6.68 1.98 6.68 5.95 0 3.96-2.25 5.95-6.67 5.95h-66.96c-4.42 0-6.67-2-6.67-5.95 0-3.96 2.25-5.95 6.67-5.95z" stroke="#000" stroke-opacity="0" stroke-width=".98" fill="#486385"/><path d="M670.3-1762.6c-14.2 0-27.92 9.04-27.92 22.25v74.5c0 13.2 13.73 22.25 27.9 22.25h401.8c14.2 0 27.92-9.05 27.92-22.26v-74.5c0-13.2-13.73-22.24-27.9-22.24h-11zm0 19.87h401.8c4.56 0 5.48 1.67 5.48 2.38v74.5c0 .7-.92 2.38-5.5 2.38H670.3c-4.58 0-5.5-1.67-5.5-2.38v-74.5c0-.7.92-2.38 5.5-2.38z" stroke="#000" stroke-opacity="0" stroke-width="1.97" fill="#486385"/><path d="M707.43-1690c-8.38 0-15.7-6.1-15.7-13.1s7.32-13.1 15.7-13.1c8.38 0 15.7 6.1 15.7 13.1s-7.32 13.1-15.7 13.1z" stroke="#486385" stroke-width=".98" fill-opacity="0"/><path d="M972.34-1690.03h66.97c4.43 0 6.68 2 6.68 5.95 0 3.96-2.25 5.95-6.67 5.95h-66.96c-4.42 0-6.67-1.98-6.67-5.95 0-3.96 2.25-5.95 6.67-5.95zM972.34-1710.23h66.97c4.43 0 6.68 2 6.68 5.95 0 3.96-2.25 5.95-6.67 5.95h-66.96c-4.42 0-6.67-2-6.67-5.95 0-3.96 2.25-5.95 6.67-5.95zM972.34-1730.06h66.97c4.43 0 6.68 2 6.68 5.95s-2.25 5.94-6.67 5.94h-66.96c-4.42 0-6.67-2-6.67-5.95 0-3.97 2.25-5.96 6.67-5.96z" stroke="#000" stroke-opacity="0" stroke-width=".98" fill="#486385"/><path d="M1087.96-1759.76H667.74c-14.27 0-25.87 13.66-25.87 28.8v311.93c0 15.14 11.6 28.43 25.87 28.43h9.82z" stroke="#000" stroke-opacity="0" stroke-width=".98" fill="#fff" fill-opacity=".2"/><path d="M836.26-1667.7c0 65.7-59.98 119.04-133.9 119.04-73.9 0-133.87-53.34-133.87-119.05 0-65.73 59.97-119.07 133.87-119.07s133.9 53.34 133.9 119.06z" stroke="#000" stroke-opacity="0" stroke-width="1.38" fill="#f7f7f7"/><path d="M707.36-1622.94c-4.76 2.98-9.3 5.04-14.83 6.65-10.2 3.22-19.26 4.48-30 4.36-8.85 0-17.37-1.14-25.34-3.55-8.1-2.4-14.5-5.72-20.93-10.76-6.53-5.16-10.85-10.66-14.28-17.77-3.55-7.1-5.32-15.36-5.32-24.76 0-9.16 1.66-17.3 5.1-24.52 3.42-7.1 8.07-13.18 13.94-18.1 6.3-5.16 12.6-8.6 20.7-11.24 8.63-2.75 16.37-4 25.56-3.9 4.87 0 9.3.23 13.28.8 3.88.58 7.42 1.27 10.4 2.07 4.76 1.27 8.75 2.88 12.95 5.28 2.78 1.72 4.66 3.67 5.88 5.62 1.22 1.95 1.77 4 1.77 6.08 0 2.06-.44 3.9-1.33 5.73-.88 1.84-2 3.44-3.2 4.82-1.23 1.38-2.33 2.52-3.77 3.67-1 .9-1.88 1.48-3.1 2.16-1.55-1.37-2.88-2.52-4.54-3.78-2.1-1.6-4.2-2.75-6.74-3.9-3-1.26-5.64-2.17-8.96-2.97-3.88-.9-7.3-1.26-11.3-1.26-5.3 0-10.06.8-14.27 2.3-4.43 1.6-7.86 3.66-11.18 6.64-3.43 3.2-5.64 6.42-7.3 10.55-1.88 4.7-2.77 9.06-2.66 13.98 0 5.3 1 9.98 2.87 14 1.88 4 4.54 7.33 7.86 10.08 3.65 2.87 7.3 4.82 11.84 6.08 4.65 1.37 9.63 2.06 14.94 2.06 6.65 0 12.4-.7 17.28-2.18 4.75-1.5 8.4-2.98 10.95-4.58l13.4 20.4z" stroke="#000" stroke-opacity="0" stroke-width=".98" fill="#81ba33"/><path d="M696.72-1645.86c.65.46 2.3 1.26 4.8 2.4 2.52 1.15 5.7 2.18 9.4 3.33 3.82 1.15 8.3 2.18 13.22 2.98 5.02.92 10.5 1.37 16.28 1.37 4.8 0 8.52-.23 11.47-.8 2.83-.7 5-1.37 6.54-2.3 1.42-.8 2.4-1.94 3.06-3.3.44-1.27.66-2.42.66-3.68.1-2.64-1.1-4.82-3.4-6.3-2.4-1.6-6.65-2.98-13-3.9l-18.23-2.87c-5.03-.8-9.3-1.7-14.2-3.2-4.8-1.38-8.75-3.1-12.8-5.73-4.03-2.53-6.87-5.5-9.17-9.3-2.4-3.88-3.6-8.58-3.6-14.2 0-4.8.98-9.4 3.06-13.64 1.96-4.35 5.13-8.02 9.28-11.23 4.15-3.2 9.4-5.73 15.74-7.56 6.44-1.82 13.87-2.74 22.4-2.74 6.22 0 11.68.34 16.27.92 4.27.45 7.88 1.03 12.03 2.06 3.27.9 6 1.72 8.08 2.52 2.1.92 3.62 1.6 4.6 2.06 1.97 1.15 3.93 2.52 5.8 4.47 1.85 1.83 2.83 4 2.72 6.52 0 1.84-.33 3.56-1.1 5.16-.65 1.72-1.4 2.98-2.5 4.47-1.1 1.5-2.2 2.64-3.4 3.67-.97.8-1.85 1.5-2.94 2.3-1.75-1.5-3.4-2.53-5.35-3.56-2.95-1.6-5.46-2.64-8.63-3.67-3.94-1.16-7.32-1.96-11.47-2.65-4.7-.8-8.85-1.14-13.66-1.14-4.7 0-8.4.35-11.14 1.04-2.74.7-4.7 1.6-6.12 2.52-1.3.92-2.18 2.06-2.6 3.44-.45 1.14-.67 2.3-.67 3.55 0 .92.1 1.83.44 2.64.32.8.98 1.7 2.07 2.5 1.2.8 2.84 1.5 4.92 2.2 2.08.67 4.8 1.36 8.4 1.93l18.9 3.33c6.35 1.14 11.6 2.4 17.6 4.35 5.13 1.85 9.4 3.9 12.78 6.55 3.5 2.52 6 5.5 7.76 9.16 1.75 3.57 2.62 7.92 2.62 12.85 0 11.12-4.7 19.82-13.98 26-9.4 6.32-22.62 9.4-39.55 9.4-7.55 0-14-.45-21.3-1.7-6.13-1.04-11.27-2.3-17.06-4.13-4.37-1.26-7.86-2.53-11.9-4.36-3.06-1.37-4.92-2.3-5.47-2.86z" stroke="#000" stroke-opacity="0" stroke-width=".98" fill="#486385"/><path d="M701.7-1794c-78.22 0-141.7 56.44-141.7 126 0 69.54 63.48 126 141.7 126 78.2 0 141.68-56.46 141.68-126 0-69.56-63.47-126-141.7-126zm0 13.86c69.7 0 126.1 50.15 126.1 112.13s-56.4 112.13-126.1 112.13c-69.72 0-126.1-50.15-126.1-112.14 0-62 56.38-112.14 126.1-112.14z" stroke="#000" stroke-opacity="0" stroke-width="1.38" fill="#81ba33"/><use xlink:href="#d" transform="matrix(1,0,0,1,530,-1291) translate(203.984375 66.5625)"/><path d="M1674.36-1405.63v49.58h33.46v-49.58zM1496.77-1351.23c-22.6-.27-22.6 30.02 0 29.76h136.03c22.6.26 22.6-30.03 0-29.76zm241.24 0c-11.08-.15 1.24 8.5 1.66 16.1 0 7.4-12.74 13.8-1.65 13.66h136.05c22.6.26 22.6-30.03 0-29.76z" stroke="#000" stroke-opacity="0" stroke-width="2.95" fill="#81ba33"/><path d="M1632.67-1364.2v58.2h116.82v-58.2zm22.3 19.84h72.2v18.5h-72.2z" stroke="#000" stroke-opacity="0" stroke-width="1.97" fill="#81ba33"/><path d="M1490.3-1518.16c-14.2 0-27.92 9.04-27.92 22.25v74.48c0 13.2 13.73 22.26 27.9 22.26h401.8c14.2 0 27.92-9.05 27.92-22.26v-74.5c0-13.2-13.73-22.24-27.9-22.24zm0 19.87h401.8c4.56 0 5.48 1.67 5.48 2.4v74.48c0 .72-.92 2.38-5.5 2.38H1490.3c-4.58 0-5.5-1.66-5.5-2.38v-74.5c0-.7.92-2.37 5.5-2.37z" stroke="#000" stroke-opacity="0" stroke-width="1.97" fill="#486385"/><path d="M1527.43-1476.72c-11.44 0-21.27 8-21.27 18.07s9.83 18.06 21.27 18.06h5.58v-1.98c8.56-2.24 15.7-7.9 15.7-16.08 0-10.07-9.87-18.06-21.27-18.06zm0 9.94c5.32 0 10.13 4.22 10.13 8.13 0 3.9-4.8 8.12-10.13 8.12h-.04c-5.3-.03-10.1-4.22-10.1-8.13 0-3.9 4.82-8.12 10.13-8.12zM1792.34-1445.58h66.97c4.43 0 6.68 2 6.68 5.95 0 3.96-2.25 5.95-6.67 5.95h-66.96c-4.42 0-6.67-2-6.67-5.95 0-3.96 2.25-5.95 6.67-5.95zM1792.34-1465.78h66.97c4.43 0 6.68 2 6.68 5.95 0 3.96-2.25 5.95-6.67 5.95h-66.96c-4.42 0-6.67-2-6.67-5.95 0-3.96 2.25-5.95 6.67-5.95zM1792.34-1485.6h66.97c4.43 0 6.68 1.97 6.68 5.94 0 3.96-2.25 5.95-6.67 5.95h-66.96c-4.42 0-6.67-2-6.67-5.96s2.25-5.95 6.67-5.95z" stroke="#000" stroke-opacity="0" stroke-width=".98" fill="#486385"/><path d="M1490.3-1643.38c-14.2 0-27.92 9.04-27.92 22.25v74.5c0 13.2 13.73 22.25 27.9 22.25h401.8c14.2 0 27.92-9.05 27.92-22.26v-74.5c0-13.2-13.73-22.24-27.9-22.24zm0 19.87h401.8c4.56 0 5.48 1.65 5.48 2.37v74.5c0 .7-.92 2.37-5.5 2.37H1490.3c-4.58 0-5.5-1.66-5.5-2.38v-74.5c0-.7.92-2.37 5.5-2.37z" stroke="#000" stroke-opacity="0" stroke-width="1.97" fill="#486385"/><path d="M1527.43-1570.78c-8.38 0-15.7-6.1-15.7-13.1s7.32-13.1 15.7-13.1c8.38 0 15.7 6.1 15.7 13.1s-7.32 13.1-15.7 13.1z" stroke="#486385" stroke-width=".98" fill-opacity="0"/><path d="M1792.34-1570.8h66.97c4.43 0 6.68 2 6.68 5.95 0 3.96-2.25 5.95-6.67 5.95h-66.96c-4.42 0-6.67-1.98-6.67-5.95 0-3.96 2.25-5.95 6.67-5.95zM1792.34-1591h66.97c4.43 0 6.68 2 6.68 5.95 0 3.96-2.25 5.95-6.67 5.95h-66.96c-4.42 0-6.67-2-6.67-5.95 0-3.96 2.25-5.95 6.67-5.95zM1792.34-1610.83h66.97c4.43 0 6.68 1.98 6.68 5.95 0 3.96-2.25 5.95-6.67 5.95h-66.96c-4.42 0-6.67-2-6.67-5.95 0-3.96 2.25-5.95 6.67-5.95z" stroke="#000" stroke-opacity="0" stroke-width=".98" fill="#486385"/><path d="M1490.3-1768.6c-14.2 0-27.92 9.04-27.92 22.25v74.5c0 13.2 13.73 22.25 27.9 22.25h401.8c14.2 0 27.92-9.05 27.92-22.26v-74.5c0-13.2-13.73-22.24-27.9-22.24h-11zm0 19.87h401.8c4.56 0 5.48 1.67 5.48 2.38v74.5c0 .7-.92 2.38-5.5 2.38H1490.3c-4.58 0-5.5-1.67-5.5-2.38v-74.5c0-.7.92-2.38 5.5-2.38z" stroke="#000" stroke-opacity="0" stroke-width="1.97" fill="#486385"/><path d="M1527.43-1696c-8.38 0-15.7-6.1-15.7-13.1s7.32-13.1 15.7-13.1c8.38 0 15.7 6.1 15.7 13.1s-7.32 13.1-15.7 13.1z" stroke="#486385" stroke-width=".98" fill-opacity="0"/><path d="M1792.34-1696.03h66.97c4.43 0 6.68 2 6.68 5.95 0 3.96-2.25 5.95-6.67 5.95h-66.96c-4.42 0-6.67-1.98-6.67-5.95 0-3.96 2.25-5.95 6.67-5.95zM1792.34-1716.23h66.97c4.43 0 6.68 2 6.68 5.95 0 3.96-2.25 5.95-6.67 5.95h-66.96c-4.42 0-6.67-2-6.67-5.95 0-3.96 2.25-5.95 6.67-5.95zM1792.34-1736.06h66.97c4.43 0 6.68 2 6.68 5.95s-2.25 5.94-6.67 5.94h-66.96c-4.42 0-6.67-2-6.67-5.95 0-3.97 2.25-5.96 6.67-5.96z" stroke="#000" stroke-opacity="0" stroke-width=".98" fill="#486385"/><path d="M1907.96-1765.76H1487.74c-14.27 0-25.87 13.66-25.87 28.8v311.93c0 15.14 11.6 28.43 25.87 28.43h9.82z" stroke="#000" stroke-opacity="0" stroke-width=".98" fill="#fff" fill-opacity=".2"/><path d="M1656.26-1673.7c0 65.7-59.98 119.04-133.9 119.04-73.9 0-133.87-53.34-133.87-119.05 0-65.73 59.97-119.07 133.87-119.07s133.9 53.34 133.9 119.06z" stroke="#000" stroke-opacity="0" stroke-width="1.38" fill="#f7f7f7"/><path d="M1527.36-1628.94c-4.76 2.98-9.3 5.04-14.83 6.65-10.2 3.22-19.26 4.48-30 4.36-8.85 0-17.37-1.14-25.34-3.55-8.1-2.4-14.5-5.72-20.93-10.76-6.53-5.16-10.85-10.66-14.28-17.77-3.55-7.1-5.32-15.36-5.32-24.76 0-9.16 1.66-17.3 5.1-24.52 3.42-7.1 8.07-13.18 13.94-18.1 6.3-5.16 12.6-8.6 20.7-11.24 8.63-2.75 16.37-4 25.56-3.9 4.87 0 9.3.23 13.28.8 3.88.58 7.42 1.27 10.4 2.07 4.76 1.27 8.75 2.88 12.95 5.28 2.78 1.72 4.66 3.67 5.88 5.62 1.22 1.95 1.77 4 1.77 6.08 0 2.06-.44 3.9-1.33 5.73-.88 1.84-2 3.44-3.2 4.82-1.23 1.38-2.33 2.52-3.77 3.67-1 .9-1.88 1.48-3.1 2.16-1.55-1.37-2.88-2.52-4.54-3.78-2.1-1.6-4.2-2.75-6.74-3.9-3-1.26-5.64-2.17-8.96-2.97-3.88-.9-7.3-1.26-11.3-1.26-5.3 0-10.06.8-14.27 2.3-4.43 1.6-7.86 3.66-11.18 6.64-3.43 3.2-5.64 6.42-7.3 10.55-1.88 4.7-2.77 9.06-2.66 13.98 0 5.3 1 9.98 2.87 14 1.88 4 4.54 7.33 7.86 10.08 3.65 2.87 7.3 4.82 11.84 6.08 4.65 1.37 9.63 2.06 14.94 2.06 6.65 0 12.4-.7 17.28-2.18 4.75-1.5 8.4-2.98 10.95-4.58l13.4 20.4z" stroke="#000" stroke-opacity="0" stroke-width=".98" fill="#81ba33"/><path d="M1516.72-1651.86c.65.46 2.3 1.26 4.8 2.4 2.52 1.15 5.68 2.18 9.4 3.33 3.82 1.15 8.3 2.18 13.22 2.98 5.02.92 10.5 1.37 16.28 1.37 4.8 0 8.52-.23 11.47-.8 2.83-.7 5-1.37 6.54-2.3 1.42-.8 2.4-1.94 3.06-3.3.44-1.27.66-2.42.66-3.68.1-2.64-1.1-4.82-3.4-6.3-2.4-1.6-6.65-2.98-13-3.9l-18.23-2.87c-5.03-.8-9.3-1.7-14.2-3.2-4.8-1.38-8.75-3.1-12.8-5.73-4.03-2.53-6.87-5.5-9.17-9.3-2.4-3.88-3.6-8.58-3.6-14.2 0-4.8.98-9.4 3.06-13.64 1.96-4.35 5.13-8.02 9.28-11.23 4.16-3.2 9.4-5.73 15.74-7.56 6.44-1.82 13.87-2.74 22.4-2.74 6.22 0 11.68.34 16.27.92 4.27.45 7.88 1.03 12.03 2.06 3.28.9 6 1.72 8.08 2.52 2.1.92 3.62 1.6 4.6 2.06 1.97 1.15 3.93 2.52 5.8 4.47 1.85 1.83 2.83 4 2.72 6.52 0 1.84-.33 3.56-1.1 5.16-.65 1.72-1.4 2.98-2.5 4.47-1.1 1.5-2.2 2.64-3.4 3.67-.97.8-1.85 1.5-2.94 2.3-1.75-1.5-3.4-2.53-5.35-3.56-2.95-1.6-5.47-2.64-8.63-3.67-3.94-1.16-7.32-1.96-11.47-2.65-4.7-.8-8.85-1.14-13.66-1.14-4.7 0-8.4.35-11.14 1.04-2.74.7-4.7 1.6-6.12 2.52-1.3.92-2.18 2.06-2.6 3.44-.45 1.14-.67 2.3-.67 3.55 0 .92.1 1.83.44 2.64.33.8.98 1.7 2.07 2.5 1.2.8 2.84 1.5 4.92 2.2 2.08.67 4.8 1.36 8.4 1.93l18.9 3.33c6.35 1.14 11.6 2.4 17.6 4.35 5.13 1.85 9.4 3.9 12.78 6.55 3.5 2.52 6 5.5 7.76 9.16 1.75 3.57 2.62 7.92 2.62 12.85 0 11.12-4.7 19.82-13.98 26-9.4 6.32-22.62 9.4-39.55 9.4-7.55 0-14-.45-21.3-1.7-6.13-1.04-11.27-2.3-17.06-4.13-4.37-1.26-7.86-2.53-11.9-4.36-3.06-1.37-4.92-2.3-5.47-2.86z" stroke="#000" stroke-opacity="0" stroke-width=".98" fill="#486385"/><path d="M1521.7-1800c-78.22 0-141.7 56.44-141.7 126 0 69.54 63.48 126 141.7 126 78.2 0 141.68-56.46 141.68-126 0-69.56-63.47-126-141.7-126zm0 13.86c69.7 0 126.1 50.15 126.1 112.13s-56.4 112.13-126.1 112.13c-69.72 0-126.1-50.15-126.1-112.14 0-62 56.38-112.14 126.1-112.14z" stroke="#000" stroke-opacity="0" stroke-width="1.38" fill="#81ba33"/><use xlink:href="#d" transform="matrix(1,0,0,1,1350,-1297) translate(203.984375 66.5625)"/><path d="M-4706.65-1395.77h-627.3c-25.2 0-46.05-20.6-46.05-45.7v-410.83c0-25.1 20.86-45.7 46.04-45.7h627.3c25.2 0 46.05 20.6 46.05 45.7v410.33c0 25.6-20.15 46.2-45.33 46.2h-.72zm-626.6-471.6c-8.62 0-15.82 6.53-15.82 15.07v410.33c0 8.54 7.2 15.57 15.83 15.57h627.3c8.64 0 15.1-7.03 15.1-15.57v-410.33c0-8.54-6.46-15.06-15.1-15.06zM-4713.98-1196h-612.46c-29.5-.17-53.25-23.88-53.25-53.3v-66.1c0-29.43 23.76-53.48 53.26-53.66h612.46c29.5 0 53.98 24.06 53.98 53.65v66.1c0 29.6-24.47 53.3-53.98 53.3zm-612.46-142.6c-12.23.17-22.3 10.56-22.3 23.2v66.1c0 12.63 10.07 22.67 22.3 22.84h612.46c12.96 0 23.03-10.38 23.03-23.2v-65.75c0-12.82-10.07-23.2-23.03-23.2z" stroke="#fff" stroke-opacity="0" fill="#232f3e"/><path d="M-4732.82-1453h-574.36c-8.47 0-15.12-6.98-15.12-15.13v-357.96c0-8.14 6.65-15.13 15.12-15.13h574.36c8.47 0 15.12 7 15.12 15.14v357.97c0 8.15-6.65 15.14-15.12 15.14zm-558.64-30.66h542.92v-326.9h-542.92zM-4905.3-1311.83h172.4c10.13 0 15.2 5.1 15.2 15.28v28.65c0 10.2-5.07 15.28-15.22 15.28h-172.38c-10.14 0-15.2-5.1-15.2-15.28v-28.65c0-10.2 5.06-15.28 15.2-15.28z" stroke="#fff" stroke-opacity="0" fill="#232f3e"/><use xlink:href="#g" transform="matrix(1,0,0,1,-5410,-1187) translate(101.953125 133.125)"/><path d="M-4606.64-1547h1511.67" stroke="#3a414a" stroke-width="10" fill="none"/><path d="M-4650.6-1547l38.96-22.5v45zM-3051-1547l-38.97 22.5v-45z" stroke="#3a414a" stroke-width="10" fill="#3a414a"/><path d="M-4320-1814a6 6 0 0 1 6-6h1008a6 6 0 0 1 6 6v208a6 6 0 0 1-6 6h-1008a6 6 0 0 1-6-6z" fill="none"/><use xlink:href="#h" transform="matrix(1,0,0,1,-4320,-1820) translate(229.95442708333326 150.65755208333334)"/><path d="M-4320-1534a6 6 0 0 1 6-6h1008a6 6 0 0 1 6 6v208a6 6 0 0 1-6 6h-1008a6 6 0 0 1-6-6z" fill="none"/><use xlink:href="#i" transform="matrix(1,0,0,1,-4320,-1540) translate(189.94791666666657 150.65755208333334)"/><path d="M243.8-1114v278.5a6 6 0 0 0 6 6H1874a6 6 0 0 1 6 6v219.52" stroke="#3a414a" stroke-width="10" fill="none"/><path d="M248.77-1113.87h-9.95v-5.13h9.95z" stroke="#3a414a" stroke-width=".05" fill="#3a414a"/><path d="M1880-556.18l-13.9-42.8h27.8z" stroke="#3a414a" stroke-width="10" fill="#3a414a"/><use xlink:href="#j" transform="matrix(1,0,0,1,739.0523166386637,-1025.50003041752) translate(0 128)"/><use xlink:href="#k" transform="matrix(1,0,0,1,739.0523166386637,-1025.50003041752) translate(235.1111111111111 128)"/><path d="M-1946.84-43.98h-9.95v-20.58h9.96zm0-61.73h-9.95v-41.17h9.96zm0-82.32h-9.95v-33.24h9.96zm0-329.24h-9.95v-41.15h9.96zm0-82.3h-9.95v-41.16h9.96zm0-82.32h-9.95v-41.15h9.96zm0-82.3h-9.95v-41.16h9.96zm0-82.3h-9.95v-41.17h9.96zm0-82.32h-9.95v-41.16h9.96zm0-82.3h-9.95v-41.17h9.96zm0-82.32h-9.95V-1114h9.96z" stroke="#3a414a" stroke-width=".05" fill="#3a414a"/><path d="M-1946.84-1113.87h-9.95v-5.13h9.96z" fill="#3a414a"/><path stroke="#3a414a" stroke-width=".05" fill="#3a414a"/><path d="M-1951.82 3.82l-13.9-42.8h27.8z" fill="#3a414a"/><path d="M-1951.82 19.92l-20.75-63.87h41.5zm-7.06-53.92l7.06 21.72 7.06-21.72z" stroke="#3a414a" stroke-width=".05" fill="#3a414a"/><use xlink:href="#l" transform="matrix(1,0,0,1,-2432.2632693380433,-477.2585203940257) translate(0 85.33333333333334)"/><use xlink:href="#m" transform="matrix(1,0,0,1,-2432.2632693380433,-477.2585203940257) translate(0 213.33333333333334)"/><path d="M-1650.4 15h-9.94V-5.16h9.95zm0-60.48h-9.94V-85.8h9.95zm0-80.65h-9.94v-40.32h9.95zm0-80.64h-9.94v-14.5h9.95zm0-270.5h-9.94V-489h9.95zm0-52.07h-9.94v-41.22h9.95zm0-83.35h-9.94v-42.12h9.95zm0-84.24h-9.94v-42.13h9.95zm0-84.26h-9.94v-42.12h9.95zm0-84.25h-9.94v-42.13h9.95zm0-84.25h-9.94v-42.13h9.95zm0-84.26h-9.94v-21.06h9.95z" stroke="#3a414a" stroke-width=".05" fill="#3a414a"/><path d="M-1650.4 20h-9.94v-5.13h9.95z" fill="#3a414a"/><path stroke="#3a414a" stroke-width=".05" fill="#3a414a"/><path d="M-1641.46-1060.02h-27.8l13.9-42.8z" fill="#3a414a"/><path d="M-1634.6-1055.05h-41.52l20.75-63.87zm-27.82-9.95h14.1l-7.05-21.72z" stroke="#3a414a" stroke-width=".05" fill="#3a414a"/><path d="M-1349.1-1114v19.38m0 38.77v38.77m0 38.77v38.76m0 38.77V-862m0 38.77v38.77m0 38.77v38.78m0 38.77v38.76m0 38.78v38.77m0 38.77v38.77m0 38.76v38.77m0 38.77v38.77m0 38.77v38.77m0 38.78v38.77m0 38.77V-106l.06.94.22.9.36.88.5.8.6.72.72.6.8.5.87.37.92.23.94.07h19.84m39.72 0h39.72m39.7 0h39.73m39.73 0h39.7m39.73 0h39.7m39.73 0h39.7m39.72 0h39.72m39.7 0h39.73m39.72 0h39.7m39.72 0h39.72m39.7 0h39.73m39.7 0h39.73m39.72 0h39.7m39.73 0h39.72m39.7 0h39.73m39.7 0h39.73m39.72 0h39.7m39.73 0H27.1m39.7 0h39.73m39.72 0h39.7m39.73 0h39.7m39.73 0h39.73m39.7 0h39.73m39.72 0h39.7m39.73 0h39.72m39.72 0h39.72m39.7 0H742m39.7 0h39.72m39.72 0h39.7m39.73 0h39.7m39.73 0h39.72m39.7 0h39.73m39.72 0h39.7m39.73 0h39.72m39.7 0h39.73m39.7 0h19.87" stroke="#3a414a" stroke-width="10" fill="none"/><path d="M-1344.14-1113.87h-9.95v-5.13h9.96z" stroke="#3a414a" stroke-width=".05" fill="#3a414a"/><path d="M1483.82-99.26l-43 13.23.43-27.8z" stroke="#3a414a" stroke-width="10" fill="#3a414a"/><g><use xlink:href="#n" transform="matrix(1,0,0,1,-596.7777777777774,-296) translate(0 128)"/><use xlink:href="#k" transform="matrix(1,0,0,1,-596.7777777777774,-296) translate(456.8888888888888 128)"/></g><defs><path d="M1003 0L516-638 353-469V0H162v-1349h191v673l572-673h225L646-777 1227 0h-224" id="o"/><path d="M528 20c-247 0-343-132-343-381v-721h180v686c-4 177 45 284 224 277 194-8 279-136 279-336v-627h181c3 360-6 732 6 1082H885c-4-54-7-126-8-185h-3C809-64 714 20 528 20" id="p"/><path d="M365-904c58-129 161-200 334-200 130 0 228 46 293 138s98 233 98 420c0 189-34 331-102 425S824 20 698 20c-170 0-275-64-336-184 0 55-3 116-9 164H179c5-68 6-147 6-223v-1261h180c-2 193 4 394-4 580h4zm283 791c221 0 256-197 256-427 0-229-34-425-254-425-236 0-285 195-285 441 0 237 53 411 283 411" id="q"/><path d="M617-1102c355 0 481 238 477 599H322c5 222 84 388 301 388 144 0 244-59 284-166l158 45C1002-72 854 20 623 20c-342 0-490-220-490-568 0-346 151-554 484-554zm291 461c-18-192-90-328-289-328-194 0-287 128-295 328h584" id="r"/><path d="M839-1102c70 0 148 7 206 17v167c-112-18-268-36-363 15-129 69-208 203-208 395V0H294c-10-367 32-789-52-1082h171c21 75 41 161 48 250h5c67-152 152-270 373-270" id="s"/><path d="M706-1102c241 0 344 136 343 381V0H868v-695c1-168-57-273-220-268-190 6-283 138-283 336V0H185c-3-360 6-732-6-1082h170c4 54 7 126 8 185h3c63-121 164-204 346-205" id="t"/><path d="M682 16c-209 0-323-80-324-285v-671H190v-142h170l58-282h120v282h432v142H538v652c2 114 60 155 182 155 106 0 209-16 297-34v137C921-4 806 16 682 16" id="u"/><path d="M873-819c-18-114-119-146-250-146-163 0-245 50-245 151 0 151 170 148 294 185 182 54 388 94 388 320 0 240-189 325-439 329-245 4-410-69-454-268l159-31c24 133 136 168 295 165 144-2 270-31 270-171 0-164-195-160-331-202-167-52-350-87-350-299 0-218 173-315 413-313 220 2 373 77 412 260" id="v"/><g id="a"><use transform="matrix(0.06510416666666667,0,0,0.06510416666666667,0,0)" xlink:href="#o"/><use transform="matrix(0.06510416666666667,0,0,0.06510416666666667,80.01302083333334,0)" xlink:href="#p"/><use transform="matrix(0.06510416666666667,0,0,0.06510416666666667,160.02604166666669,0)" xlink:href="#q"/><use transform="matrix(0.06510416666666667,0,0,0.06510416666666667,240.03906250000003,0)" xlink:href="#r"/><use transform="matrix(0.06510416666666667,0,0,0.06510416666666667,320.05208333333337,0)" xlink:href="#s"/><use transform="matrix(0.06510416666666667,0,0,0.06510416666666667,400.06510416666674,0)" xlink:href="#t"/><use transform="matrix(0.06510416666666667,0,0,0.06510416666666667,480.0781250000001,0)" xlink:href="#r"/><use transform="matrix(0.06510416666666667,0,0,0.06510416666666667,560.0911458333335,0)" xlink:href="#u"/><use transform="matrix(0.06510416666666667,0,0,0.06510416666666667,640.1041666666669,0)" xlink:href="#r"/><use transform="matrix(0.06510416666666667,0,0,0.06510416666666667,720.1171875000001,0)" xlink:href="#v"/></g><path d="M650-1214c-281 0-336 244-336 533 0 295 60 546 347 546 188 0 263-142 322-282l159 65C1058-155 935 20 659 20c-401 0-546-295-546-701 0-407 135-689 536-689 264 0 391 146 466 335l-168 65c-47-129-127-244-297-244" id="w"/><path d="M736-142h380V0H134v-142h422v-1200H267v-142h469v1342" id="x"/><g id="b"><use transform="matrix(0.06510416666666667,0,0,0.06510416666666667,0,0)" xlink:href="#w"/><use transform="matrix(0.06510416666666667,0,0,0.06510416666666667,80.01302083333334,0)" xlink:href="#x"/><use transform="matrix(0.06510416666666667,0,0,0.06510416666666667,160.02604166666669,0)" xlink:href="#p"/><use transform="matrix(0.06510416666666667,0,0,0.06510416666666667,240.03906250000003,0)" xlink:href="#v"/><use transform="matrix(0.06510416666666667,0,0,0.06510416666666667,320.05208333333337,0)" xlink:href="#u"/><use transform="matrix(0.06510416666666667,0,0,0.06510416666666667,400.06510416666674,0)" xlink:href="#r"/><use transform="matrix(0.06510416666666667,0,0,0.06510416666666667,480.0781250000001,0)" xlink:href="#s"/></g><path d="M1000-272c3 95 12 159 101 161 21 0 41-3 59-7V-6c-44 10-86 16-139 16-141 2-191-84-197-217h-6C748-76 648 20 446 20c-207 0-318-120-318-322 0-266 194-348 454-354l236-4c12-191-40-305-222-305-140 0-220 47-232 172l-188-17c33-204 181-292 423-292 255 0 401 118 401 364v466zm-683-27c0 109 63 184 175 182 166-3 259-96 306-217 24-65 20-120 20-200-232 7-501-28-501 235" id="y"/><path d="M631 20c-350 0-501-215-501-562 0-355 162-560 502-560 250 0 399 118 446 323l-192 14c-23-124-109-196-262-196-242 0-305 171-305 415 1 245 61 427 304 427 151 0 248-77 267-215l190 12C1039-107 883 20 631 20" id="z"/><path d="M745-142h380V0H143v-142h422v-798H246v-142h499v940zM545-1292v-192h200v192H545" id="A"/><path d="M615-1102c343 0 484 203 482 560-1 347-147 562-488 562-336 0-475-219-479-562-4-349 156-560 485-560zm-8 989c240 0 301-180 301-429 0-245-55-427-290-427-236 0-299 181-299 427 0 243 61 429 288 429" id="B"/><path d="M334-464v-160h560v160H334" id="C"/><path d="M530 26c-303-6-392-228-392-558 0-187 33-329 98-424s162-142 293-142c178 0 273 69 334 184 1-56 3-122 12-169h175c-6 88-6 180-6 282V425H863c1-202-4-411 4-607h-2C805-59 713 29 530 26zm47-139c234 0 286-193 286-441 0-238-55-411-284-411-223 0-255 198-255 427 0 227 33 425 253 425" id="D"/><g id="c"><use transform="matrix(0.052083333333333336,0,0,0.052083333333333336,0,0)" xlink:href="#u"/><use transform="matrix(0.052083333333333336,0,0,0.052083333333333336,64.01041666666667,0)" xlink:href="#s"/><use transform="matrix(0.052083333333333336,0,0,0.052083333333333336,128.02083333333334,0)" xlink:href="#y"/><use transform="matrix(0.052083333333333336,0,0,0.052083333333333336,192.03125,0)" xlink:href="#t"/><use transform="matrix(0.052083333333333336,0,0,0.052083333333333336,256.0416666666667,0)" xlink:href="#v"/><use transform="matrix(0.052083333333333336,0,0,0.052083333333333336,320.05208333333337,0)" xlink:href="#y"/><use transform="matrix(0.052083333333333336,0,0,0.052083333333333336,384.06250000000006,0)" xlink:href="#z"/><use transform="matrix(0.052083333333333336,0,0,0.052083333333333336,448.0729166666668,0)" xlink:href="#u"/><use transform="matrix(0.052083333333333336,0,0,0.052083333333333336,512.0833333333334,0)" xlink:href="#A"/><use transform="matrix(0.052083333333333336,0,0,0.052083333333333336,576.09375,0)" xlink:href="#B"/><use transform="matrix(0.052083333333333336,0,0,0.052083333333333336,640.1041666666666,0)" xlink:href="#t"/><use transform="matrix(0.052083333333333336,0,0,0.052083333333333336,704.1145833333333,0)" xlink:href="#C"/><use transform="matrix(0.052083333333333336,0,0,0.052083333333333336,768.1249999999999,0)" xlink:href="#D"/><use transform="matrix(0.052083333333333336,0,0,0.052083333333333336,832.1354166666665,0)" xlink:href="#p"/><use transform="matrix(0.052083333333333336,0,0,0.052083333333333336,896.1458333333331,0)" xlink:href="#r"/><use transform="matrix(0.052083333333333336,0,0,0.052083333333333336,960.1562499999999,0)" xlink:href="#p"/><use transform="matrix(0.052083333333333336,0,0,0.052083333333333336,1024.1666666666665,0)" xlink:href="#r"/></g><path d="M912-211c-10-84-18-177-18-274v-864h172V0H836L316-1130c7 79 16 167 16 254V0H162v-1349h222" id="E"/><path d="M865-914c-3-187-2-380-2-570h180v1261c0 76 1 155 6 223H877c-8-49-9-116-10-174h-5C801-44 708 26 530 26c-135 0-234-46-297-139s-95-232-95-419c0-377 131-566 392-566 176 0 271 63 335 184zm-286-51c-222 0-255 197-255 427 0 229 31 425 253 425 237 0 286-195 286-441 0-238-52-411-284-411" id="F"/><g id="d"><use transform="matrix(0.0390625,0,0,0.0390625,0,0)" xlink:href="#E"/><use transform="matrix(0.0390625,0,0,0.0390625,48.0078125,0)" xlink:href="#B"/><use transform="matrix(0.0390625,0,0,0.0390625,96.015625,0)" xlink:href="#F"/><use transform="matrix(0.0390625,0,0,0.0390625,144.0234375,0)" xlink:href="#r"/></g><path d="M285-1169c8 382 2 780 4 1169H129v-1349h237c86 239 188 461 253 720 69-258 169-481 255-720h225V0H937c2-390-5-788 6-1169-75 255-170 488-259 729H547c-90-240-185-475-262-729" id="G"/><path d="M168 279c222 39 310-114 368-290L66-1082h192c120 299 249 590 362 896 115-301 235-597 351-896h190L705 0c-65 164-130 320-275 396-67 36-177 35-262 18V279" id="H"/><path d="M614-1226c-167 1-283 53-283 213 0 183 186 193 334 234 230 63 463 120 463 409 0 286-219 387-518 390C309 23 131-98 79-338l185-37c34 165 149 248 351 246 184-2 324-58 324-238 0-203-207-221-372-266-210-57-422-111-422-377 0-267 201-356 470-360 279-5 430 101 480 324l-188 33c-28-141-121-215-293-213" id="I"/><g id="e"><use transform="matrix(0.052083333333333336,0,0,0.052083333333333336,0,0)" xlink:href="#G"/><use transform="matrix(0.052083333333333336,0,0,0.052083333333333336,64.01041666666667,0)" xlink:href="#H"/><use transform="matrix(0.052083333333333336,0,0,0.052083333333333336,128.02083333333334,0)" xlink:href="#I"/><use transform="matrix(0.052083333333333336,0,0,0.052083333333333336,192.03125,0)" xlink:href="#D"/><use transform="matrix(0.052083333333333336,0,0,0.052083333333333336,256.0416666666667,0)" xlink:href="#x"/></g><path d="M473-1349c438-1 655 221 652 661C1122-268 945-8 532 0H162v-1349h311zm42 1193c308-4 416-205 418-532 2-330-131-509-459-505H353v1037h162" id="J"/><path d="M698-1104c312 3 392 244 392 558 0 315-82 566-392 566-169 0-277-65-331-184h-5c8 188 2 394 4 589H185V-858c0-76-1-156-6-224h175c6 52 9 120 10 178h4c58-122 150-202 330-200zm-49 991c225 0 255-203 255-433 0-225-32-419-253-419-236 0-285 192-285 441 0 237 53 411 283 411" id="K"/><path d="M904-1102c199 0 220 177 220 381V0H956v-686c-3-114 0-215-60-264-70-33-125-4-158 71-26 56-39 140-39 252V0H531v-686c-3-114-1-215-61-264-78-41-136 24-157 84-24 69-39 159-39 259V0H105c-3-360 6-732-6-1082h149c6 50 3 123 8 175 36-100 83-195 216-195 135 0 166 79 196 196 42-105 93-196 236-196" id="L"/><g id="f"><use transform="matrix(0.0390625,0,0,0.0390625,0,0)" xlink:href="#J"/><use transform="matrix(0.0390625,0,0,0.0390625,48.0078125,0)" xlink:href="#r"/><use transform="matrix(0.0390625,0,0,0.0390625,96.015625,0)" xlink:href="#K"/><use transform="matrix(0.0390625,0,0,0.0390625,144.0234375,0)" xlink:href="#x"/><use transform="matrix(0.0390625,0,0,0.0390625,192.03125,0)" xlink:href="#B"/><use transform="matrix(0.0390625,0,0,0.0390625,240.0390625,0)" xlink:href="#H"/><use transform="matrix(0.0390625,0,0,0.0390625,288.046875,0)" xlink:href="#L"/><use transform="matrix(0.0390625,0,0,0.0390625,336.0546875,0)" xlink:href="#r"/><use transform="matrix(0.0390625,0,0,0.0390625,384.0625,0)" xlink:href="#t"/><use transform="matrix(0.0390625,0,0,0.0390625,432.0703125,0)" xlink:href="#u"/></g><g id="g"><use transform="matrix(0.078125,0,0,0.078125,0,0)" xlink:href="#w"/><use transform="matrix(0.078125,0,0,0.078125,96.015625,0)" xlink:href="#x"/><use transform="matrix(0.078125,0,0,0.078125,192.03125,0)" xlink:href="#A"/><use transform="matrix(0.078125,0,0,0.078125,288.046875,0)" xlink:href="#r"/><use transform="matrix(0.078125,0,0,0.078125,384.0625,0)" xlink:href="#t"/><use transform="matrix(0.078125,0,0,0.078125,480.078125,0)" xlink:href="#u"/></g><path d="M1121-976c0 225-142 341-344 379L1177 0H957L591-575H353V0H162v-1349h482c281 3 477 100 477 373zM633-726c181-1 296-73 296-247 0-149-101-223-304-223H353v470h280" id="M"/><g id="h"><use transform="matrix(0.06510416666666667,0,0,0.06510416666666667,0,0)" xlink:href="#M"/><use transform="matrix(0.06510416666666667,0,0,0.06510416666666667,80.01302083333334,0)" xlink:href="#r"/><use transform="matrix(0.06510416666666667,0,0,0.06510416666666667,160.02604166666669,0)" xlink:href="#D"/><use transform="matrix(0.06510416666666667,0,0,0.06510416666666667,240.03906250000003,0)" xlink:href="#p"/><use transform="matrix(0.06510416666666667,0,0,0.06510416666666667,320.05208333333337,0)" xlink:href="#r"/><use transform="matrix(0.06510416666666667,0,0,0.06510416666666667,400.06510416666674,0)" xlink:href="#v"/><use transform="matrix(0.06510416666666667,0,0,0.06510416666666667,480.0781250000001,0)" xlink:href="#u"/></g><g id="i"><use transform="matrix(0.06510416666666667,0,0,0.06510416666666667,0,0)" xlink:href="#M"/><use transform="matrix(0.06510416666666667,0,0,0.06510416666666667,80.01302083333334,0)" xlink:href="#r"/><use transform="matrix(0.06510416666666667,0,0,0.06510416666666667,160.02604166666669,0)" xlink:href="#v"/><use transform="matrix(0.06510416666666667,0,0,0.06510416666666667,240.03906250000003,0)" xlink:href="#K"/><use transform="matrix(0.06510416666666667,0,0,0.06510416666666667,320.05208333333337,0)" xlink:href="#B"/><use transform="matrix(0.06510416666666667,0,0,0.06510416666666667,400.06510416666674,0)" xlink:href="#t"/><use transform="matrix(0.06510416666666667,0,0,0.06510416666666667,480.0781250000001,0)" xlink:href="#v"/><use transform="matrix(0.06510416666666667,0,0,0.06510416666666667,560.0911458333335,0)" xlink:href="#r"/></g><path fill="#333" d="M92-20c74 11 92-29 92-98 0-66-23-103-92-98v196zm150-99C242 9 136 6 6 0v-13l31-5v-200l-31-5v-13h112c81 0 124 34 124 117" id="N"/><path fill="#333" d="M90-170c54-1 76 32 76 87 1 56-23 87-77 87-53 0-75-32-75-87s23-86 76-87zM89-14c28-2 26-38 26-69s3-69-26-69c-27 0-24 39-24 69s-3 66 24 69" id="O"/><g id="j"><use transform="matrix(0.4444444444444444,0,0,0.4444444444444444,0,0)" xlink:href="#N"/><use transform="matrix(0.4444444444444444,0,0,0.4444444444444444,115.1111111111111,0)" xlink:href="#O"/></g><path fill="#333" d="M54 0v-13l38-5v-199l-66 3-4 44H6v-66h229v66h-17l-4-44c-17-2-44-3-67-3v199l38 5V0H54" id="P"/><path fill="#333" d="M132-132c-21 0-37 9-50 16v100l26 4V0H10v-12l21-4v-133l-21-5v-11h69l2 34c17-18 35-41 71-40v61c-17 3-14-14-20-22" id="Q"/><path fill="#333" d="M31-163c51-5 127-20 127 40v107l17 4V0h-61l-4-13C82 13 12 12 12-46c0-51 46-52 95-53 9-45-22-69-57-44l-7 20H31v-40zM62-47c0 30 26 34 45 23v-59c-28 0-45 6-45 36" id="R"/><path fill="#333" d="M127-114c3-31-26-38-50-25v123l15 4V0H10v-12l16-4v-133l-16-5v-11h64l2 14c31-23 102-32 102 30v105l17 4V0h-82v-12l14-4v-98" id="S"/><path fill="#333" d="M102-142c-14-17-68-15-54 18 24 26 83 17 83 72 0 62-72 62-120 47v-45h12c4 23 16 37 43 37 35 0 39-37 9-46-31-9-65-19-64-61 0-52 59-55 108-45v43h-11" id="T"/><path fill="#333" d="M107-230c-31-13-29 30-29 65h34v18H78v131l27 4V0H10v-12l18-4v-131H3v-12l25-7c-8-66 31-98 95-84v39h-11" id="U"/><path fill="#333" d="M12-83c0-55 22-85 75-86 52-1 66 33 63 88H64c-1 37 6 64 44 63 14 0 28-4 39-6 3 28-28 25-55 27-57 4-80-31-80-86zm90-17c2-26 0-63-27-48-10 9-11 28-11 48h38" id="V"/><g id="k"><use transform="matrix(0.4444444444444444,0,0,0.4444444444444444,0,0)" xlink:href="#P"/><use transform="matrix(0.4444444444444444,0,0,0.4444444444444444,94.66666666666666,0)" xlink:href="#Q"/><use transform="matrix(0.4444444444444444,0,0,0.4444444444444444,165.33333333333331,0)" xlink:href="#R"/><use transform="matrix(0.4444444444444444,0,0,0.4444444444444444,245.33333333333331,0)" xlink:href="#S"/><use transform="matrix(0.4444444444444444,0,0,0.4444444444444444,334.2222222222222,0)" xlink:href="#T"/><use transform="matrix(0.4444444444444444,0,0,0.4444444444444444,396.4444444444444,0)" xlink:href="#U"/><use transform="matrix(0.4444444444444444,0,0,0.4444444444444444,449.33333333333326,0)" xlink:href="#V"/><use transform="matrix(0.4444444444444444,0,0,0.4444444444444444,519.9999999999999,0)" xlink:href="#Q"/></g><path fill="#333" d="M92-112c43 4 61-13 61-54s-18-54-61-50v104zm118-54c0 63-50 78-118 74v74l39 5V0H8v-13l28-5v-200l-30-5v-13c88 3 205-20 204 70" id="W"/><path fill="#333" d="M15-82c-4-69 47-101 113-83l-1-69-17-4v-12h68v234l18 4V0h-63l-4-9C77 23 5-9 15-82zm112-66c-43-16-64 17-61 65 2 33 3 67 32 67 12 0 22-3 29-8v-124" id="X"/><path fill="#333" d="M73-51c-3 31 27 38 51 25v-123l-16-5v-11h66v149l17 4V0h-65l-2-14C94 9 22 18 22-44v-105l-17-5v-11h68v114" id="Y"/><path fill="#333" d="M109-18c15 0 31-2 42-6v14c-11 9-31 13-51 13-59 0-86-28-88-86-3-75 66-101 135-80v48h-13c-3-20-7-40-34-37-51 7-55 138 9 134" id="Z"/><path fill="#333" d="M78-41c-2 24 21 26 40 20C122 3 98 2 77 4 5 10 32-84 27-147H6v-11l25-7 21-38h26v38h35v18H78v106" id="aa"/><path fill="#333" d="M21 4H-4l83-241h25" id="ab"/><path fill="#333" d="M76-116c0 86 71 126 135 84l6-39h16l-1 60C138 21 18 1 18-115c0-117 106-141 210-112l1 57h-16l-5-34c-13-9-32-16-54-16-60 0-78 42-78 104" id="ac"/><path fill="#333" d="M126-114c3-31-27-37-49-25v123l15 4V0H10v-12l16-4v-133l-16-5v-11h64l2 14c24-16 81-33 96 3 30-24 105-39 105 27v105l17 4V0h-82v-12l14-4v-98c4-33-27-37-51-24 5 35 0 82 2 122l17 4V0h-83v-12l15-4v-98" id="ad"/><g id="l"><use transform="matrix(0.29629629629629634,0,0,0.29629629629629634,0,0)" xlink:href="#W"/><use transform="matrix(0.29629629629629634,0,0,0.29629629629629634,64.8888888888889,0)" xlink:href="#Q"/><use transform="matrix(0.29629629629629634,0,0,0.29629629629629634,109.92592592592594,0)" xlink:href="#O"/><use transform="matrix(0.29629629629629634,0,0,0.29629629629629634,163.25925925925927,0)" xlink:href="#X"/><use transform="matrix(0.29629629629629634,0,0,0.29629629629629634,222.51851851851856,0)" xlink:href="#Y"/><use transform="matrix(0.29629629629629634,0,0,0.29629629629629634,281.7777777777778,0)" xlink:href="#Z"/><use transform="matrix(0.29629629629629634,0,0,0.29629629629629634,328.8888888888889,0)" xlink:href="#aa"/><use transform="matrix(0.29629629629629634,0,0,0.29629629629629634,364.14814814814815,0)" xlink:href="#V"/><use transform="matrix(0.29629629629629634,0,0,0.29629629629629634,411.25925925925924,0)" xlink:href="#Q"/><use transform="matrix(0.29629629629629634,0,0,0.29629629629629634,458.3703703703703,0)" xlink:href="#ab"/><use transform="matrix(0.29629629629629634,0,0,0.29629629629629634,487.99999999999994,0)" xlink:href="#ac"/><use transform="matrix(0.29629629629629634,0,0,0.29629629629629634,564.7407407407406,0)" xlink:href="#O"/><use transform="matrix(0.29629629629629634,0,0,0.29629629629629634,618.074074074074,0)" xlink:href="#S"/><use transform="matrix(0.29629629629629634,0,0,0.29629629629629634,677.3333333333333,0)" xlink:href="#T"/><use transform="matrix(0.29629629629629634,0,0,0.29629629629629634,718.8148148148148,0)" xlink:href="#Y"/><use transform="matrix(0.29629629629629634,0,0,0.29629629629629634,778.074074074074,0)" xlink:href="#ad"/><use transform="matrix(0.29629629629629634,0,0,0.29629629629629634,866.6666666666666,0)" xlink:href="#V"/><use transform="matrix(0.29629629629629634,0,0,0.29629629629629634,913.7777777777777,0)" xlink:href="#Q"/></g><path fill="#333" d="M155 0h-10L58-199v181l32 5V0H6v-13l30-5v-200l-30-5v-13h93l67 155 69-155h94v13l-30 5v200l30 5V0H212v-13l32-5v-181" id="ae"/><path fill="#333" d="M9 41c2-18 18-26 32-33C29 1 16-9 16-28l29-33c-21-9-31-25-31-51-2-56 61-65 111-53l39-20c13 12-9 24-14 36 35 54-17 114-90 92-17 34 27 28 56 28 36-1 61 12 60 46-2 46-39 62-91 62-38 0-71-6-76-38zm35-3c6 35 97 29 94-9-2-28-50-14-78-17-8 7-15 14-16 26zm20-150c0 22 4 40 23 40 20 0 24-17 24-40 0-24-4-40-24-40-19 0-23 17-23 40" id="af"/><path fill="#333" d="M77-16l18 4V0H8v-12l18-4v-133l-17-5v-11h68v149zM51-196c-16 0-27-10-27-27s10-27 27-27 27 11 27 27c0 17-10 27-27 27" id="ag"/><g id="m"><use transform="matrix(0.29629629629629634,0,0,0.29629629629629634,0,0)" xlink:href="#ae"/><use transform="matrix(0.29629629629629634,0,0,0.29629629629629634,100.44444444444446,0)" xlink:href="#V"/><use transform="matrix(0.29629629629629634,0,0,0.29629629629629634,147.55555555555557,0)" xlink:href="#T"/><use transform="matrix(0.29629629629629634,0,0,0.29629629629629634,189.03703703703707,0)" xlink:href="#T"/><use transform="matrix(0.29629629629629634,0,0,0.29629629629629634,230.51851851851856,0)" xlink:href="#R"/><use transform="matrix(0.29629629629629634,0,0,0.29629629629629634,283.8518518518519,0)" xlink:href="#af"/><use transform="matrix(0.29629629629629634,0,0,0.29629629629629634,337.1851851851852,0)" xlink:href="#ag"/><use transform="matrix(0.29629629629629634,0,0,0.29629629629629634,366.81481481481484,0)" xlink:href="#S"/><use transform="matrix(0.29629629629629634,0,0,0.29629629629629634,426.07407407407413,0)" xlink:href="#af"/></g><path fill="#333" d="M75-13V0H4v-13l17-5 84-220h51l83 220 18 5V0H152v-13l28-5-23-61H67L45-18zm38-189L74-98h76" id="ah"/><path fill="#333" d="M81 5L15-149c-7-2-13-5-11-16h84v11l-20 5 39 91 35-91-19-5v-11h53c2 11-4 13-11 15C134-81 111-5 75 58 65 77 34 83 8 74V32h11c0 24 29 35 43 12 7-11 13-25 19-39" id="ai"/><g id="n"><use transform="matrix(0.4444444444444444,0,0,0.4444444444444444,0,0)" xlink:href="#ah"/><use transform="matrix(0.4444444444444444,0,0,0.4444444444444444,115.1111111111111,0)" xlink:href="#T"/><use transform="matrix(0.4444444444444444,0,0,0.4444444444444444,177.33333333333331,0)" xlink:href="#ai"/><use transform="matrix(0.4444444444444444,0,0,0.4444444444444444,257.3333333333333,0)" xlink:href="#S"/><use transform="matrix(0.4444444444444444,0,0,0.4444444444444444,346.2222222222222,0)" xlink:href="#Z"/></g></defs></g></svg>